<?xml version="1.0" standalone="no"?>
<!DOCTYPE svg PUBLIC "-//W3C//DTD SVG 20010904//EN"
 "http://www.w3.org/TR/2001/REC-SVG-20010904/DTD/svg10.dtd">
<svg version="1.0" xmlns="http://www.w3.org/2000/svg"
 width="736.000000pt" height="736.000000pt" viewBox="0 0 736.000000 736.000000"
 preserveAspectRatio="xMidYMid meet">
<metadata>
Created by potrace 1.14, written by Peter Selinger 2001-2017
</metadata>
<g transform="translate(0.000000,736.000000) scale(0.100000,-0.100000)"
fill="#000000" stroke="none">
<path d="M3447 7323 c-3 -5 -44 -100 -92 -213 -48 -113 -93 -218 -100 -235 -7
-16 -133 -313 -280 -660 -146 -346 -272 -643 -280 -660 -7 -16 -331 -779 -720
-1695 -700 -1650 -835 -1967 -860 -2025 -18 -41 -96 -226 -265 -625 -78 -184
-148 -348 -155 -365 -8 -16 -46 -106 -85 -200 -40 -93 -78 -183 -85 -200 -32
-71 -185 -436 -185 -440 0 -3 1514 -5 3365 -5 l3365 0 0 24 c0 19 -58 168
-110 281 -5 11 -18 40 -28 65 -11 25 -29 67 -41 94 -11 27 -21 55 -21 62 0 8
-4 14 -10 14 -5 0 -10 6 -10 13 0 12 -43 117 -94 232 -16 34 -131 308 -171
405 -15 36 -35 83 -45 105 -10 22 -32 74 -49 115 -18 41 -36 84 -41 95 -5 11
-41 97 -81 190 -39 94 -77 184 -84 200 -31 70 -195 457 -195 460 0 3 -11 28
-24 57 -13 29 -42 98 -66 153 -23 55 -48 114 -56 130 -7 17 -77 181 -155 365
-77 184 -173 409 -211 500 -39 91 -82 194 -98 230 -15 36 -78 184 -140 330
-62 146 -124 292 -137 325 -14 33 -33 78 -43 100 -10 22 -55 128 -100 235 -45
107 -88 209 -96 225 -7 17 -83 197 -169 400 -87 204 -163 384 -171 400 -42 95
-96 222 -99 235 -2 8 -17 47 -35 85 -33 74 -40 92 -120 280 -27 66 -55 128
-60 137 -6 10 -10 22 -10 27 0 5 -13 38 -29 73 -16 35 -79 182 -141 328 -62
146 -121 286 -132 313 l-20 47 -264 0 c-144 0 -265 -3 -267 -7z"/>
</g>
</svg>
