<svg width="46" height="61" viewBox="0 0 46 61" fill="none" xmlns="http://www.w3.org/2000/svg">
<path d="M45.5488 24.122C45.4366 24.1425 45.3244 24.1528 45.2121 24.1528C44.8142 24.1425 44.4469 24.2454 44.0796 24.3895C43.702 24.5438 43.4368 24.8114 43.2939 25.2024C43.2735 25.2641 43.2633 25.3362 43.1919 25.3876C42.7225 24.8422 42.2123 24.338 41.5491 24.0396C41.6308 24.0191 41.7124 24.0088 41.8042 23.9882C42.2838 23.8853 42.7123 23.6898 43.049 23.3193C43.3245 23.0209 43.5898 22.7225 43.8449 22.4138C44.4571 21.6627 44.4571 20.6234 43.8551 19.8619C43.6714 19.6253 43.4674 19.3886 43.2735 19.1622C43.1613 19.0285 43.0388 18.8947 42.9164 18.7609C42.8858 18.7301 42.845 18.6889 42.7939 18.7095C42.7327 18.7301 42.7429 18.7918 42.7429 18.8433C42.7429 18.8844 42.7531 18.9256 42.7633 18.9564C42.845 19.4298 42.9266 19.8928 42.9878 20.3662C43.0082 20.5411 42.9776 20.6954 42.896 20.8395C42.7735 21.0556 42.6001 21.1893 42.3756 21.282C41.8552 21.498 41.3247 21.5392 40.7737 21.4466C40.039 21.3231 39.335 21.0864 38.6106 20.9218C38.2228 20.8292 37.8453 20.6954 37.4678 20.5514C36.2638 20.0986 35.0802 19.5841 33.8558 19.1931C33.264 19.0079 32.6518 18.8433 32.0294 18.8124C31.1111 18.7609 30.2234 18.9256 29.3867 19.3063C28.6521 19.6459 28.0297 20.1089 27.6419 20.8498C27.3154 21.4775 27.0706 22.1463 26.9175 22.8357C26.9073 22.8769 26.9073 22.9078 26.8971 22.9489C26.9175 22.5682 26.9379 22.1875 26.9583 21.8067C26.9889 21.1379 27.0195 20.4588 27.0808 19.7899C27.1522 18.9564 27.4073 18.1847 27.9685 17.5467C28.2439 17.2277 28.55 16.9396 28.8561 16.6412C29.1214 16.384 29.3153 16.0856 29.4888 15.7666C29.6622 15.4579 29.652 15.1698 29.4581 14.8714C29.1725 14.4083 28.8868 13.935 28.6113 13.4616C28.5398 13.3382 28.5501 13.2661 28.6827 13.2044C29.0092 13.0501 29.3357 12.8854 29.652 12.7208C30.1928 12.4327 30.7234 12.124 31.1315 11.6506C31.6213 11.0847 31.9886 10.4364 32.1008 9.68526C32.2131 8.95468 32.162 8.23439 31.9988 7.5141C31.8661 6.89671 31.6621 6.29989 31.5498 5.6825C31.5192 5.50757 31.4784 5.33264 31.4988 5.14743C31.5498 4.7667 31.6723 4.41685 31.8865 4.09786C31.958 3.98467 32.0294 3.87148 32.0906 3.75829C32.111 3.71713 32.1416 3.66568 32.1008 3.62452C32.0702 3.59365 32.0294 3.60394 31.9886 3.61423C31.9478 3.62452 31.9172 3.63481 31.8763 3.65539C31.1723 3.98467 30.4683 4.31395 29.8867 4.84902C29.4479 5.24004 29.0704 5.67221 28.8459 6.22786C28.8153 5.93975 28.897 5.67221 29.0092 5.41496C29.2541 4.84902 29.6214 4.3654 29.9989 3.89206C30.0499 3.82003 30.1112 3.75829 30.152 3.68626C30.203 3.59365 30.1724 3.54221 30.0806 3.53192C29.7234 3.51134 29.3663 3.4496 28.999 3.50105C28.4072 3.57308 27.948 3.90235 27.5297 4.28308C27.244 4.55061 26.9787 4.84902 26.7236 5.19888C26.7849 4.73583 26.8563 4.31395 27.0093 3.91264C27.193 3.43931 27.4379 3.00713 27.7542 2.61612C27.795 2.56467 27.846 2.51322 27.8154 2.44119C27.7848 2.36916 27.7032 2.37945 27.6419 2.36916C27.6113 2.36916 27.5807 2.36916 27.5399 2.36916C27.1216 2.41032 26.7032 2.44119 26.2951 2.56467C25.989 2.65728 25.7135 2.80133 25.4686 3.01742C24.632 3.76858 24.0198 4.67409 23.7443 5.7854C23.7341 5.82656 23.7341 5.8883 23.683 5.91917C23.2239 5.33264 23.081 4.64322 23.0198 3.93322C22.979 3.45989 23.1117 2.99684 23.2035 2.54409C23.3259 1.95756 23.4688 1.37104 23.6014 0.784519C23.6218 0.7022 23.683 0.599301 23.5504 0.547852C23.3565 0.599301 23.2341 0.753649 23.0913 0.877128C22.5913 1.29901 22.0913 1.73119 21.6832 2.25597C21.1016 2.97626 20.9179 3.83032 20.7649 4.74612C20.3363 3.82003 19.6629 3.1409 18.8773 2.54409C18.6732 2.38974 18.4691 2.23539 18.2447 2.10162C18.2038 2.08104 18.163 2.05017 18.1222 2.08104C18.0814 2.11191 18.1018 2.16336 18.112 2.21481C18.1222 2.26626 18.1426 2.31771 18.1528 2.36916C18.2753 2.77046 18.3875 3.17177 18.4691 3.57308C18.5406 3.90235 18.5303 4.22134 18.3977 4.53003C18.3569 4.63293 18.3569 4.79757 18.2549 4.81815C18.1426 4.83873 18.112 4.67409 18.0406 4.59177C18.0202 4.57119 18.01 4.55061 17.9998 4.53003C17.5406 3.77887 16.8978 3.26438 16.1122 2.90423C16.0407 2.87336 15.9591 2.82191 15.8877 2.87336C15.7958 2.9351 15.8469 3.038 15.8673 3.11003C15.9387 3.3467 15.9795 3.60394 16.0407 3.84061C16.1734 4.40655 16.0611 4.92105 15.7958 5.44583C15.6836 5.24004 15.5816 5.05482 15.4897 4.8696C15.3469 4.59177 15.1734 4.33453 14.9388 4.12873C14.7857 3.99496 14.6225 3.91264 14.4184 3.93322C14.2449 3.94351 14.2041 3.99496 14.2653 4.1596C14.3368 4.35511 14.398 4.5609 14.4592 4.7667C14.5612 5.12685 14.551 5.48699 14.3776 5.82656C14.2653 6.05294 14.1531 6.2896 14.0307 6.51598C13.7552 7.02018 13.4899 7.52439 13.3777 8.10062C13.3062 8.49164 13.2858 8.88265 13.2654 9.28396C13.2246 10.0454 13.3266 10.7554 13.7144 11.4243C14.2449 12.3503 14.9388 13.0706 15.9999 13.369C16.4183 13.4822 16.8366 13.5851 17.2651 13.6469C17.4386 13.6674 17.6222 13.6674 17.7957 13.7498C17.612 14.1305 17.4182 14.4906 17.1835 14.8302C17.1019 14.9537 17.0203 15.0874 17.01 15.2418C16.9896 15.5505 17.1631 15.746 17.3774 15.9312C18.1936 16.6001 18.9691 17.3101 19.765 17.9995C19.867 18.0818 19.9282 18.1847 19.9282 18.3185C19.9282 18.8433 19.918 19.3783 19.9588 19.9031C19.9996 20.3867 19.969 20.8704 19.9894 21.354C19.9996 21.6215 20.0098 21.8891 20.02 22.1566C20.0098 22.0331 19.9996 21.9096 19.9792 21.7759C19.9486 21.5289 19.7241 21.4569 19.5099 21.5804C19.4078 21.6421 19.3058 21.7244 19.1936 21.7862C18.8671 21.9302 18.561 21.7553 18.5201 21.3951C18.5099 21.3025 18.5201 21.2305 18.6324 21.2408C18.7548 21.2511 18.8262 21.1688 18.8773 21.0762C18.9487 20.963 18.9997 20.8395 19.0609 20.7263C19.3874 20.0575 19.316 19.3886 19.0099 18.7404C18.9385 18.586 18.816 18.4728 18.663 18.4111C18.4895 18.339 18.3059 18.267 18.1324 18.195C17.9079 18.1024 17.8977 18.1024 17.9488 17.8554C18.0202 17.485 17.9284 17.166 17.7039 16.8676C17.561 16.6927 17.408 16.528 17.2345 16.3943C17.1529 16.3325 17.0713 16.209 16.9692 16.2605C16.8468 16.3119 16.8978 16.456 16.8978 16.5692C16.8774 16.9705 16.7346 17.2998 16.3468 17.485C15.9897 17.6496 15.602 17.7422 15.2041 17.7525C14.4388 17.7731 13.694 17.9172 12.9491 18.0921C12.6022 18.1744 12.3879 18.3802 12.2553 18.6992C12.2247 18.7815 12.1941 18.8638 12.1635 18.9461C12.1328 19.0285 12.0818 19.0799 12.0002 19.1108C11.439 19.296 10.888 19.5121 10.2962 19.615C9.8983 19.6767 9.5718 20.0883 9.5922 20.4896C9.60241 20.6851 9.66363 20.8498 9.83708 20.9321C10.0514 21.035 10.1024 21.1893 10.0718 21.4054C10.0003 21.9405 10.2146 22.4241 10.4187 22.8872C10.5207 23.1135 10.6534 23.1753 10.888 23.1238C10.9799 23.093 11.0309 23.0107 11.1227 22.9798C11.2962 22.8563 11.4186 22.6814 11.5308 22.4962C11.5819 22.4138 11.6329 22.3315 11.7349 22.2904C12.2349 22.0949 12.6838 22.1978 13.1124 22.4962C13.1634 22.5373 13.2042 22.5888 13.2246 22.6505C13.296 22.8254 13.2552 22.8769 13.0716 22.8563C12.745 22.8151 12.4185 22.774 12.1022 22.7328C11.7451 22.6917 11.4084 22.7122 11.1329 22.9798C11.0513 23.0004 11.0105 23.0827 10.9288 23.1135C10.837 23.1444 10.7758 23.2164 10.7146 23.2885C10.3575 23.7104 9.8779 23.6692 9.43915 23.484C9.29631 23.4222 9.24529 23.3193 9.24529 23.1753C9.24529 23.0209 9.2861 22.8769 9.31671 22.7225C9.32692 22.6711 9.35753 22.5991 9.2861 22.5579C9.23509 22.527 9.18407 22.5682 9.14326 22.5888C8.86777 22.7637 8.61268 22.9592 8.44943 23.2473C8.21475 23.6486 8.20455 24.0499 8.46983 24.4409C8.77594 24.904 9.22488 25.0789 9.76566 25.0172C10.2044 24.9657 10.6534 24.9143 11.0921 24.8422C11.3472 24.7908 11.3676 24.8217 11.286 25.0789C11.1737 25.3876 11.0819 25.7066 11.0513 26.0359C11.0207 26.3034 10.9595 26.5709 10.8676 26.8282C10.8472 26.9002 10.8268 26.9723 10.7656 27.0134C10.4595 27.2501 10.133 27.4559 9.73505 27.3736C9.15346 27.2501 9.05143 27.1678 9.02082 26.5915C9.02082 26.4989 9.00041 26.4063 8.99021 26.3137C8.98 26.252 8.98 26.1799 8.90858 26.1696C8.84736 26.1594 8.80655 26.2108 8.76573 26.2623C8.55146 26.5092 8.3576 26.7767 8.21475 27.0752C8.09231 27.3324 8.04129 27.5999 8.0719 27.8881C8.0617 27.8983 8.10251 27.9395 8.04129 28.0424C7.78621 27.8469 7.58214 27.5896 7.31685 27.4044C7.28624 27.3838 7.27604 27.353 7.25563 27.3221C7.08218 27.0134 6.98014 26.6841 6.96994 26.324C6.95974 25.933 7.03116 25.5625 7.05157 25.1818C7.08218 24.4924 7.32706 23.8956 7.69438 23.3296C7.92906 22.9695 8.18414 22.6402 8.43923 22.3109C8.58207 22.1257 8.69431 21.9199 8.73512 21.6935C8.76573 21.4877 8.74533 21.282 8.58207 21.1482C8.45963 21.035 8.45963 20.9218 8.49024 20.7777C8.62289 20.1192 8.57187 19.4812 8.21475 18.8844C8.04129 18.5963 7.80662 18.4008 7.50051 18.2876C7.10258 18.1332 6.68425 18.1127 6.2557 18.195C6.21489 18.2053 6.15367 18.2053 6.13326 18.2567C6.11286 18.3185 6.17408 18.3493 6.20469 18.3802C6.36794 18.5037 6.5516 18.5963 6.71486 18.7198C7.30665 19.1211 7.33726 19.224 7.1638 19.9134C7.1536 19.9443 7.1434 19.9751 7.13319 20.006C7.05157 20.1809 6.92913 20.2941 6.73526 20.325C6.63323 20.3456 6.59242 20.325 6.57201 20.2221C6.5414 20.0369 6.50059 19.8619 6.44957 19.6767C6.38835 19.4709 6.29652 19.2857 6.08225 19.1828C6.00062 19.1417 5.97001 19.0799 5.97001 18.9873C5.97001 18.6786 5.84757 18.4008 5.68432 18.1538C5.48025 17.8246 5.24557 17.5261 4.82723 17.4438C4.50073 17.3821 4.16402 17.3924 3.84771 17.4541C3.25592 17.5776 2.72534 17.8863 2.19477 18.1744C2.14375 18.195 2.10294 18.2361 2.12334 18.2979C2.13355 18.3493 2.18456 18.3596 2.23558 18.3596C2.2866 18.3699 2.33761 18.3596 2.38863 18.3699C2.73555 18.4008 3.08246 18.4008 3.42937 18.4625C3.93954 18.5448 4.09259 18.833 3.88853 19.3063C3.74568 19.6253 3.49059 19.8619 3.29673 20.1398C3.2049 20.2735 3.04165 20.3044 2.86819 20.2324C2.6131 20.1192 2.35802 19.9957 2.09273 19.8928C1.83765 19.7899 1.60297 19.8105 1.35809 19.9443C0.796906 20.253 0.429585 20.7366 0.113281 21.2717V21.354C0.511212 21.2614 0.909143 21.1893 1.31728 21.1996C1.77643 21.2202 2.18456 21.5083 2.26619 21.9199C2.32741 22.2286 2.16416 22.4962 2.01111 22.7431C1.90907 22.9078 1.85806 23.0621 1.91928 23.2473C1.92948 23.2885 1.94989 23.3296 1.90907 23.3708C1.70501 23.5766 1.31728 23.5869 1.10301 23.3914C0.86833 23.1856 0.684669 22.918 0.460196 22.6814C0.449992 22.9798 0.603043 23.6589 0.74589 24.0191C1.00097 24.6467 1.32748 24.8628 2.0009 24.8422C2.07233 24.8422 2.12334 24.8422 2.17436 24.904C2.50087 25.3259 2.92941 25.4185 3.41917 25.2641C3.58242 25.2127 3.65385 25.2744 3.62324 25.4596C3.59263 25.5934 3.58242 25.7375 3.58242 25.8712C3.57222 26.2828 3.44978 26.6738 3.28653 27.0546C3.13348 27.3941 2.8886 27.497 2.55188 27.3736C2.26619 27.2707 1.9805 27.1472 1.6948 27.0443C1.62338 27.0237 1.56216 26.9517 1.48053 27.0031C1.72541 27.353 1.97029 27.6925 2.24578 28.0733C2.11314 28.0424 2.01111 28.0218 1.88867 27.9909C2.0009 28.1967 2.09273 28.382 2.20497 28.5569C2.44985 28.9479 2.75595 29.2875 3.2151 29.4212C3.38856 29.4727 3.36815 29.5447 3.31714 29.6682C2.97022 30.4091 3.13348 31.1602 3.2151 31.9628C3.33754 31.8188 3.42937 31.7159 3.5212 31.613C3.56202 31.7879 3.55181 31.9423 3.57222 32.0966C3.59263 32.3744 3.511 32.6831 3.65385 32.9404C3.86812 33.3417 4.1232 33.7121 4.32727 34.1237C4.4293 34.3295 4.64357 34.4633 4.90886 34.3398C4.95988 34.3192 4.95988 34.3604 4.97008 34.381C5.19456 34.9778 5.48025 35.5643 5.22517 36.2434C5.0415 36.7271 4.85784 37.2004 4.62317 37.6943C4.82723 37.6429 5.01089 37.6017 5.18435 37.5502C5.61289 37.4165 5.95981 37.1489 6.28631 36.8197C6.37815 37.0152 6.45977 37.1798 6.5312 37.3547C6.69445 37.7458 6.98014 38.0133 7.37808 38.1573C7.7454 38.2911 8.10251 38.4146 8.48004 38.5175C8.54126 38.5278 8.59227 38.5484 8.65349 38.5587C8.70451 38.5689 8.75553 38.6101 8.81675 38.5689C8.61268 38.2808 8.32699 38.0339 8.30658 37.6429C8.29638 37.293 8.24536 36.9431 8.43923 36.5933C8.55146 36.9637 8.70451 37.293 8.89838 37.6017C9.06163 37.8589 9.08204 37.8692 9.35753 37.7149C9.53098 37.612 9.69424 37.4988 9.8779 37.3753C9.91871 37.5914 9.79627 37.756 9.78607 37.9515C9.97993 37.9207 10.0616 37.7252 10.2248 37.6634C10.2962 37.7663 10.1738 37.8589 10.2248 37.9618C10.3473 37.8898 10.4697 37.8281 10.6227 37.7355C10.5309 38.075 10.4595 38.3734 10.3677 38.6616C10.1942 39.2172 10.1228 39.8037 9.8881 40.3285C9.54119 41.1105 9.09224 41.8411 8.61268 42.5614C8.39841 42.8907 8.11272 43.0347 7.71479 42.9627C7.41889 42.9113 7.1434 42.829 6.86791 42.7261C6.62303 42.6437 6.37815 42.5511 6.10265 42.5511C5.74554 42.5511 5.53127 42.7466 5.57208 43.1068C5.60269 43.364 5.49045 43.5081 5.3272 43.6419C5.11293 43.8065 4.98028 44.0329 4.93947 44.2901C4.76601 45.3603 4.99049 46.1937 6.13326 46.914C6.12306 46.8008 6.11286 46.7082 6.09245 46.6156C6.04143 46.2761 6.09245 45.9571 6.2353 45.6484C6.27611 45.5661 6.31693 45.4837 6.41896 45.4529C6.79648 45.35 7.28624 45.7513 7.25563 46.1423C7.24543 46.3481 7.24543 46.5539 7.29645 46.7494C7.43929 47.3256 7.52092 47.9327 7.95967 48.3958C8.20455 48.653 8.43923 48.9309 8.69431 49.1675C8.84736 49.3116 9.01061 49.4453 9.20448 49.6203C9.10244 49.0955 9.00041 48.6427 8.86777 48.19C8.79634 47.9533 8.78614 47.7269 8.90858 47.5006C8.98 47.3771 9.01061 47.233 9.03102 47.089C9.08204 46.7185 9.2759 46.4304 9.5718 46.1937C9.62281 46.4201 9.61261 46.6774 9.85749 46.7803C10.0309 46.842 10.0922 46.9552 10.133 47.1198C10.1534 47.1919 10.184 47.2536 10.2146 47.3256C10.4289 47.8401 10.7452 48.3032 11.1431 48.6736C11.5921 49.0955 12.2145 49.1366 12.8369 49.291C12.7042 49.1058 12.592 48.9514 12.4798 48.8074C12.2961 48.5604 12.1022 48.3135 11.9186 48.0665C11.5819 47.5829 11.6125 47.0478 11.7553 46.5024C11.7859 46.3995 11.8267 46.3378 11.939 46.3069C12.1328 46.2452 12.3471 46.1423 12.3369 45.9056C12.3165 45.5455 12.5206 45.3191 12.7042 45.0619C13.0613 45.3603 13.2042 45.741 13.194 46.1937C13.194 46.5127 13.194 46.8317 13.194 47.1507C13.5103 46.9449 13.8164 46.7185 14.0409 46.4098C14.4388 45.8645 14.6837 45.2779 14.347 44.6091C14.2755 44.4753 14.3062 44.393 14.398 44.2798C14.7143 43.8888 14.6429 43.5904 14.2143 43.3434C14.1429 43.3023 14.0817 43.2714 14.0103 43.2303C13.8164 43.1274 13.6531 42.9833 13.5103 42.8187C13.3981 42.6952 13.3368 42.5614 13.3674 42.3865C13.4083 42.1704 13.5001 42.1189 13.694 42.2116C13.9286 42.3247 14.1429 42.4791 14.3368 42.6643C14.4184 42.7466 14.4898 42.8289 14.6123 42.9627C14.6225 42.7363 14.6327 42.5717 14.6531 42.4071C14.6633 42.4071 14.6837 42.3968 14.6939 42.3968C14.7449 42.5203 14.7959 42.654 14.8571 42.8187C15.0816 42.2218 15.3571 41.6868 15.3571 41.0591C15.3571 40.9253 15.3979 40.915 15.5102 40.9665C15.7856 41.1105 16.0815 41.2134 16.408 41.2443C16.5101 41.2546 16.6121 41.2443 16.6631 41.1414C16.7244 41.0385 16.6631 40.9562 16.6121 40.8739C16.5407 40.771 16.4897 40.6578 16.4285 40.5446C16.3978 40.4931 16.3978 40.4417 16.4591 40.4108C16.7346 40.2771 16.8672 40.0198 16.9692 39.7626C17.0305 39.6082 17.0917 39.6082 17.2243 39.6494C17.7651 39.814 18.1528 39.742 18.5303 39.4127C17.7855 39.0217 17.7651 38.7747 17.8059 38.3837C17.8773 38.4249 17.959 38.466 18.0304 38.5072C18.3467 38.6718 18.6834 38.7953 19.0405 38.7747C19.2548 38.7645 19.3466 38.6204 19.2752 38.4249C19.265 38.394 19.214 38.3631 19.2548 38.322C19.4487 38.3734 19.6323 38.4146 19.8364 38.3529C20.1323 38.2705 20.1425 38.25 19.9588 38.0133C19.816 37.8384 19.6833 37.6531 19.5507 37.4782C19.4487 37.3444 19.3364 37.2004 19.2956 37.0358C19.1119 36.2537 19.2242 35.5231 19.7548 34.8955C19.9588 34.6588 20.1935 34.453 20.4894 34.2678C20.5404 37.0358 20.6016 39.7729 20.6526 42.5203C20.1527 42.2836 19.6731 42.0675 19.2038 41.8514C18.9181 41.7176 18.6324 41.6662 18.3263 41.7794C18.2345 41.8103 18.1222 41.8308 18.0202 41.8308C17.6733 41.8205 17.4182 41.9749 17.2039 42.2321C16.8978 42.6026 16.7039 43.0347 16.5713 43.4978C16.4795 43.8065 16.4693 44.1255 16.6019 44.4239C16.6325 44.4959 16.6223 44.5577 16.5815 44.6194C16.4489 44.8149 16.3264 45.0207 16.1938 45.2162C15.4489 46.3687 15.9897 47.5623 17.1223 48.2208C17.1121 48.1797 17.1121 48.1385 17.1019 48.0974C17.0611 47.7372 17.0203 47.3771 17.1223 47.0169C17.1733 46.8214 17.4386 46.6156 17.6427 46.6259C17.6733 46.6259 17.7039 46.6259 17.7243 46.6671C17.8569 46.9037 18.0202 47.1198 17.9284 47.4182C17.8467 47.6961 17.8569 47.9842 17.9284 48.262C18.1222 49.0852 18.5916 49.682 19.3874 50.001C19.3874 49.7643 19.3874 49.538 19.3874 49.3013C19.3976 48.9103 19.5405 48.5707 19.8364 48.3032C19.8772 48.262 19.918 48.2003 19.9996 48.2517C20.3465 48.4678 20.6935 48.4678 21.0404 48.1797C21.0404 48.262 21.0404 48.3032 21.0404 48.3443C21.0506 49.6409 21.071 50.9374 21.0812 52.2339C21.0812 52.3368 21.1016 52.4294 21.1322 52.522C21.5199 53.7259 21.8975 54.9299 22.2852 56.1235C22.4484 56.6277 22.5811 57.1319 22.7852 57.6155C22.8464 57.7596 22.9688 57.8625 23.1117 57.9139C23.4076 58.0065 23.9891 57.7904 24.0912 57.3583C24.4585 55.8148 24.8666 54.2816 25.2544 52.7484C25.4788 51.8738 25.6931 50.9991 25.7135 50.0833C25.7339 49.2395 25.8258 48.3958 25.8768 47.552C25.887 47.4388 25.9176 47.3874 26.0196 47.3565C26.2849 47.2639 26.5298 47.1404 26.7543 46.9758C26.9991 46.8008 27.2032 46.5848 27.2236 46.2555C27.2338 46.1834 27.2746 46.1526 27.3256 46.1217C27.6215 45.9262 27.8766 45.6792 28.1113 45.4117C28.2031 45.2985 28.2848 45.1236 28.397 45.0927C28.5092 45.0721 28.6419 45.2059 28.7745 45.2677C29.4071 45.5558 29.9989 45.494 30.5805 45.0721C30.4989 45.031 30.4479 45.0001 30.3867 44.9692C29.9989 44.7532 29.601 44.5371 29.2439 44.2695C29.1214 44.1769 29.0296 44.0637 28.999 43.9197C29.0602 43.8888 29.101 43.93 29.1418 43.9505C30.0704 44.3004 30.9172 43.6419 31.0091 42.7261C31.0295 42.5203 31.0499 42.3247 31.1213 42.1292C31.1825 41.9543 31.2335 41.7794 31.2948 41.6045C31.3152 41.553 31.356 41.5016 31.2845 41.4295C31.1927 41.5016 31.0907 41.5839 30.9989 41.6559C30.8152 41.8 30.6111 41.9029 30.3969 41.9749C30.1622 42.0469 29.9581 42.0058 29.7745 41.8514C29.5908 41.6971 29.4479 41.5118 29.3051 41.3163C29.1622 41.1311 29.1418 40.9562 29.2745 40.7504C29.4581 40.4623 29.55 40.1433 29.6316 39.814C29.7234 39.4436 29.754 39.104 29.4071 38.8159C29.2541 38.6924 29.1316 38.466 29.152 38.3014C29.1827 37.931 29.2847 37.5605 29.55 37.2724C29.6724 37.1386 29.7642 37.1489 29.8867 37.2724C30.4173 37.7663 30.703 38.394 30.9376 39.0629C31.0805 39.4745 31.1723 39.9066 31.2845 40.3388C31.6315 40.1124 31.8559 39.8346 31.9784 39.4539C32.0294 39.2892 32.0906 39.1143 32.1518 38.9497C32.1722 38.8982 32.1824 38.8262 32.2641 38.8262C32.7028 38.8056 33.111 38.5895 33.5497 38.5381C34.0701 38.466 34.6006 38.466 35.1108 38.3426C35.6108 38.2088 36.1107 38.2191 36.6107 38.3117C36.7331 38.3323 36.7638 38.3734 36.7536 38.4866C36.7331 38.8982 36.7229 39.3098 36.7025 39.7111C36.6821 40.1433 36.5699 40.5549 36.3658 40.9356C36.2536 41.1517 36.1413 41.3781 36.0393 41.6147C35.6006 42.6334 34.8455 43.3332 33.8354 43.7448C33.6823 43.8065 33.5191 43.8682 33.366 43.9403C32.8661 44.1872 32.6824 44.5988 32.8253 45.1339C32.8559 45.2368 32.8355 45.3088 32.7844 45.3911C32.6314 45.6484 32.4885 45.9056 32.4273 46.204C32.3253 46.7082 32.4987 47.1713 32.7232 47.6035C33.0497 48.2311 33.5803 48.7045 34.0701 49.1881C34.1517 49.1881 34.1313 49.1469 34.1211 49.0955C34.1109 49.0337 34.1007 48.9617 34.0905 48.9C33.968 48.2723 33.9476 47.6446 34.1211 47.0169C34.1823 46.8008 34.2843 46.77 34.4374 46.914C34.6721 47.1404 34.8965 47.3668 35.121 47.5932C35.1618 47.6343 35.2128 47.6858 35.223 47.7578C35.3149 48.7971 35.8353 49.6203 36.5291 50.3509C36.5801 50.4023 36.6311 50.4435 36.6719 50.4846C36.6923 50.464 36.7025 50.464 36.7025 50.4538C36.7025 50.3509 36.7127 50.2582 36.7025 50.1553C36.6821 49.363 36.7944 48.5913 37.0597 47.8401C37.1107 47.7064 37.1617 47.6343 37.3045 47.6035C37.4474 47.5726 37.6106 47.5623 37.7229 47.4491C37.8249 47.3462 37.8657 47.3977 37.9269 47.4903C38.2738 48.015 38.8452 48.19 39.4064 48.4164C39.3962 48.2826 39.3962 48.1694 39.386 48.0665C39.3656 47.7166 39.335 47.3668 39.3248 47.0169C39.3146 46.7803 39.3554 46.5333 39.4574 46.3275C39.5391 46.1732 39.7329 46.204 39.8758 46.1526C40.1615 46.06 40.3145 45.8748 40.3349 45.5764C40.3451 45.4632 40.4064 45.422 40.488 45.3808C40.8451 45.2162 41.0594 44.9281 41.1614 44.5474C41.2328 44.2901 41.2838 44.0226 41.3042 43.7448C41.3145 43.6007 41.2634 43.4361 41.3145 43.3126C41.3859 43.1685 41.6001 43.2714 41.7226 43.1685C41.7124 43.1376 41.7022 43.0965 41.6818 43.0553C41.5083 42.6334 41.3247 42.2013 41.141 41.7794C41.0798 41.6456 41.1104 41.5736 41.2328 41.5118C41.4063 41.4295 41.5797 41.3472 41.743 41.2649C41.896 41.1929 42.0593 41.09 42.0491 40.9047C42.0185 40.4314 42.0899 39.9169 41.5899 39.6288C41.6512 39.5362 41.7022 39.4539 41.743 39.3613C42.0287 38.8159 41.9471 38.25 41.8042 37.684C41.794 37.6326 41.7634 37.5708 41.7226 37.5502C41.4777 37.4473 41.4267 37.2107 41.3349 37.0049C41.2838 36.902 41.2124 36.8094 41.1206 36.7476C41.0288 36.6859 41.039 36.6242 41.0696 36.5418C41.1614 36.3052 41.2634 36.0582 41.192 35.7907C41.039 35.2247 40.7023 34.7514 40.3553 34.2266C40.3145 34.844 40.2635 35.3997 40.2329 35.9553C40.2227 36.12 40.1615 36.1817 39.9982 36.192C39.7125 36.2229 39.5391 36.0788 39.4064 35.8524C39.2738 35.626 39.2228 35.3585 39.1309 35.1115C38.9677 34.6485 38.6718 34.3192 38.1718 34.206C37.8555 34.134 37.5494 34.1957 37.2331 34.2575C36.6311 34.381 36.0393 34.5147 35.4271 34.4427C34.621 34.3398 33.6109 33.8356 33.5191 32.5905C33.4987 32.2715 33.4783 31.9526 33.4987 31.6439C33.5293 31.1397 33.3558 30.6869 33.1416 30.2444C33.111 30.193 33.0395 30.121 33.1824 30.0901C33.5191 30.0181 33.8456 29.9254 34.1721 29.8637C34.5598 29.802 34.9374 29.9254 35.3149 29.9872C36.2944 30.121 37.2229 30.3988 38.0596 30.975C38.6208 31.366 38.9473 31.8702 39.1309 32.5082C39.1922 32.7243 39.1207 32.8581 38.9677 32.9918C38.7738 33.1462 38.5493 33.2388 38.3351 33.3417C38.2636 33.3726 38.1718 33.3828 38.131 33.4652C38.233 33.4857 38.3249 33.496 38.4167 33.5063C38.9575 33.5784 39.4983 33.7018 40.0186 33.4549C40.1717 33.3828 40.3247 33.3828 40.488 33.424C41.1818 33.5784 41.692 33.2182 41.7736 32.5185C41.8144 32.1172 41.8042 31.7159 41.692 31.3249C41.6512 31.1808 41.692 31.1294 41.8144 31.0779C42.4368 30.8001 43.0286 30.4914 43.5898 30.1107C44.0285 29.8225 44.304 29.4007 44.3755 28.8862C44.4775 28.1247 44.6305 27.3736 44.7326 26.6224C44.855 25.6551 45.2529 24.8422 45.8856 24.122V24.0808C45.7223 24.0911 45.6305 24.1014 45.5488 24.122ZM19.367 23.7618C19.3874 23.5766 19.4997 23.4325 19.6323 23.3091C19.9486 23.0209 20.0404 22.6711 20.0404 22.3109C20.0506 22.7225 20.0506 23.1444 20.0609 23.5663C19.9486 23.4737 19.8976 23.5457 19.8466 23.6178C19.7752 23.7207 19.6935 23.8236 19.6017 23.8956C19.5405 23.947 19.4793 23.9882 19.4078 23.9367C19.3364 23.8956 19.3568 23.8236 19.367 23.7618ZM20.02 26.0256C19.9996 26.0256 19.9486 26.077 19.7956 26.0462C19.2548 25.9638 19.2038 25.2127 19.7445 25.1098C19.969 25.0686 20.1425 24.9143 20.1527 25.1612C20.1629 25.1818 20.2445 25.9947 20.02 26.0256ZM26.6828 25.5214L26.6624 25.7169C26.6726 25.6449 26.6828 25.5831 26.6828 25.5214ZM28.0093 26.5401C27.9583 26.5401 27.8766 26.5298 27.8256 26.5195C27.7746 26.5195 27.6317 26.4989 27.5807 26.4989C27.4889 26.4886 27.3971 26.4783 27.3154 26.4783C27.1216 26.4578 26.9991 26.4475 26.7951 26.4269C26.7134 26.4166 26.6522 26.3652 26.6522 26.2314L26.7849 24.5644C26.7951 24.4409 26.7951 24.3175 26.8767 24.1117C26.9175 24.0191 27.04 24.3895 27.1318 24.5953C27.142 24.6262 27.1726 24.7085 27.1726 24.7291C27.2338 24.8731 27.244 24.904 27.244 24.9143C27.295 25.0583 27.2644 24.9966 27.3154 25.1098C27.3461 25.1921 27.3971 25.2744 27.4379 25.3567C27.7134 25.9021 27.6522 25.7683 27.7134 25.9021C27.7644 25.9947 27.8664 26.1388 27.948 26.2211C27.9583 26.2314 27.9583 26.2314 27.9685 26.2417C27.9685 26.252 27.9787 26.252 27.9889 26.2623C28.295 26.5092 28.397 26.5401 28.448 26.5709C28.5603 26.6121 28.6725 26.5915 28.0093 26.5401ZM36.5699 23.7207C36.5699 23.7104 36.5903 23.6075 36.6005 23.5972C36.6413 23.4222 36.6413 23.4428 36.6719 23.2679C36.6923 23.1238 36.6821 23.0004 36.7025 22.8357C36.7127 22.7225 36.7025 22.5888 36.8352 22.702C36.9984 22.846 37.2331 23.0621 37.4168 23.1753C37.6004 23.2885 37.7841 23.3914 37.9473 23.5149C38.0188 23.5766 37.9984 23.7001 37.8861 23.7207C37.6208 23.7515 37.3862 23.7618 37.1311 23.803C37.0188 23.8236 36.9576 23.8338 36.8658 23.8441C36.8148 23.8544 36.7638 23.8647 36.7127 23.8647C36.6617 23.8956 36.5903 23.8647 36.5699 23.803C36.5699 23.7824 36.5699 23.7515 36.5699 23.7207ZM29.3459 24.9966C28.8255 24.6056 28.6623 23.875 28.7235 23.2576C28.7847 22.7328 28.8868 22.3727 29.2337 21.8479C29.2745 21.7656 29.5602 21.4157 29.6724 21.3643C30.3356 21.0144 30.805 20.9835 31.5498 21.1996C32.0702 21.354 32.5906 21.7038 32.8457 22.1978C33.1824 22.8563 32.9987 23.3296 32.611 23.7309C32.3763 23.9779 31.9682 24.1014 31.6519 24.194C31.5906 24.2146 31.407 24.3175 31.3458 24.3278C31.3968 24.4718 31.6417 24.6879 31.7845 24.7496C32.2437 24.9451 32.5192 25.048 32.6926 25.0892H32.6824C32.0804 25.2127 30.2336 25.6654 29.3459 24.9966ZM41.8858 28.0321C41.2022 29.2669 39.6717 29.1125 38.5391 28.9479C38.1616 28.8965 38.3453 28.9273 37.6821 28.7833C36.8862 28.6083 36.8658 28.5569 36.0699 28.3614C36.0393 28.3511 33.315 27.6617 33.2844 27.6514C30.0601 26.8282 30.0091 27.1781 31.8865 26.8899C32.4987 26.7973 32.5396 26.8179 33.1212 26.6944C33.3252 26.6533 34.0191 26.4783 34.8455 26.2828C35.621 26.1079 35.7332 26.0565 35.9475 26.0256C37.3555 25.6449 39.0493 25.2333 40.3859 25.7272C41.2736 26.0565 42.4878 26.9311 41.8858 28.0321Z" fill="#022553"/>
<path d="M33.9961 49.1993C34.037 49.1787 34.037 49.1374 34.0472 49.1064C34.0882 49.158 34.0984 49.2096 34.0575 49.2612C34.0472 49.2715 34.0063 49.2199 33.9961 49.1993Z" fill="#2E426F"/>
<path d="M43.3846 19.8206C43.6499 20.1088 43.8641 20.4072 43.9356 20.8085C44.0172 21.2406 43.9458 21.6317 43.7009 21.9815C43.4152 22.3931 43.0785 22.7635 42.7214 23.1237C42.3438 23.5044 41.8337 23.5867 41.3337 23.6588C40.8235 23.7308 40.3134 23.7617 39.8032 23.7308C39.0175 23.6896 38.3033 23.4427 37.6707 22.9693C37.2217 22.6298 36.7932 22.2799 36.3749 21.8992C36.3341 21.8683 36.3136 21.8066 36.2422 21.8066C36.3034 22.0741 36.3647 22.3314 36.4157 22.5989C36.5279 23.1237 36.3034 23.5559 36.0075 23.9469C35.8239 24.1835 35.528 24.1424 35.2729 24.1527C35.0892 24.163 34.9056 24.1321 34.7015 24.1218C34.9566 23.453 35.028 22.7841 34.9668 22.0844C34.8852 22.2285 34.8954 22.3828 34.875 22.5372C34.8036 22.9899 34.7321 23.4427 34.5587 23.8646C34.3852 24.2864 34.0995 24.5643 33.6404 24.6363C33.5485 24.6466 33.4567 24.6569 33.3751 24.6878C32.7017 24.9347 32.1915 24.6775 31.7119 24.3688C31.8752 24.3379 32.0282 24.3173 32.1813 24.2864C33.3037 24.0395 33.773 22.6812 33.018 21.8169C32.1711 20.8393 31.0793 20.5512 29.9263 20.9422C29.5896 21.0554 29.3345 21.2818 29.1407 21.5802C28.7734 22.1564 28.4979 22.7635 28.5081 23.4633C28.5081 23.8028 28.5693 24.1321 28.6815 24.4511C28.906 25.0993 29.4468 25.3566 30.0386 25.5007C30.61 25.6447 31.2018 25.5418 31.7732 25.4492C33.2526 25.2022 34.6811 24.7392 36.1402 24.3791C37.1707 24.1218 38.2013 23.9983 39.2522 24.0189C39.8338 24.0292 40.4154 24.0704 40.9868 24.2144C41.7316 24.3893 42.2826 24.8627 42.7724 25.4183C43.0173 25.6859 43.2315 25.9843 43.4458 26.3136C43.4968 26.0666 43.5274 25.8608 43.5784 25.655C43.7723 24.9038 44.3947 24.4408 45.0987 24.5437C45.0987 24.554 45.0987 24.5746 45.0987 24.5849C44.5784 25.2331 44.4661 26.0151 44.3233 26.7972C44.1906 27.5072 44.0886 28.2275 43.9764 28.9478C43.9049 29.3696 43.6703 29.6783 43.3234 29.915C42.6908 30.3266 42.0173 30.6662 41.3235 30.9646C41.2011 31.016 41.1704 31.0572 41.2215 31.191C41.4051 31.6437 41.4663 32.117 41.3745 32.611C41.2929 33.0637 40.997 33.2592 40.548 33.1666C40.4256 33.146 40.4154 33.1049 40.4562 33.002C40.5787 32.6418 40.6297 32.2714 40.548 31.8907C40.497 31.6746 40.4052 31.4894 40.2215 31.3453C40.1603 31.4276 40.2113 31.4996 40.2419 31.5511C40.4868 32.0553 40.344 32.5389 40.1603 33.0226C40.1501 33.0431 40.1399 33.0843 40.1195 33.0843C39.8236 33.2181 39.5277 33.3518 39.191 33.3312C39.1808 33.2386 39.242 33.2181 39.2726 33.1872C39.4359 33.0123 39.4869 32.8168 39.4359 32.5801C39.2624 31.8083 38.8747 31.2012 38.2013 30.7485C37.3544 30.1723 36.4259 29.8636 35.426 29.7298C35.2117 29.6989 34.9974 29.6578 34.7933 29.6166C34.4158 29.5446 34.0383 29.5754 33.671 29.6783C33.3547 29.771 33.018 29.843 32.6915 29.9047C32.5486 29.9356 32.5384 29.9767 32.62 30.1002C32.8649 30.4912 33.0486 30.9028 33.1302 31.3556C33.1608 31.5305 33.1506 31.7157 33.1404 31.8907C33.1098 32.364 33.1506 32.827 33.2935 33.2798C33.5587 34.1339 34.2118 34.5557 35.0178 34.7718C35.7219 34.957 36.4259 34.8233 37.1197 34.6792C37.3646 34.6278 37.6095 34.566 37.8544 34.5763C38.2319 34.5866 38.5176 34.7512 38.7012 35.0908C38.7931 35.2657 38.8441 35.451 38.8951 35.6259C38.9869 35.9037 39.1094 36.161 39.3236 36.3771C39.5787 36.6343 40.0277 36.6034 40.2828 36.5108C40.4256 36.4594 40.497 36.3256 40.5174 36.1713C40.5378 35.914 40.5685 35.6568 40.5889 35.3892C40.9562 35.8728 40.9256 36.2844 40.5378 36.7886C40.2828 37.1282 39.9154 37.2517 39.4971 37.2723C39.344 37.2826 39.191 37.3031 39.0584 37.3958C39.4971 37.5192 39.9256 37.4986 40.3338 37.2723C40.446 37.2105 40.5378 37.1179 40.6399 37.0459C40.6807 37.015 40.6909 36.943 40.7623 36.9842C40.8133 37.015 40.8031 37.0768 40.7929 37.1282C40.7521 37.4986 40.6093 37.8176 40.2828 38.0234C40.2113 38.0646 40.1501 38.116 40.0583 38.1675C40.4052 38.2807 40.6399 38.0749 41.0582 37.3134C41.1807 37.6015 41.048 37.8794 41.0174 38.1572C40.9664 38.682 40.6705 38.9701 40.1501 39.0524C39.9767 39.0833 39.8032 39.1039 39.6297 39.1862C39.9665 39.2685 40.7419 39.1142 40.9868 38.8981C41.2113 38.7026 41.2317 38.4144 41.2929 38.1469C41.3133 38.0749 41.3235 37.9926 41.3337 37.9102C41.3439 37.8691 41.3235 37.8073 41.3949 37.8073C41.4357 37.8073 41.4561 37.8485 41.4663 37.8897C41.5582 38.3424 41.6398 38.7849 41.4255 39.2273C41.3235 39.4331 41.1704 39.5463 40.9256 39.536C40.6705 39.5258 40.4154 39.536 40.1195 39.536C40.293 39.6698 40.4868 39.6389 40.6603 39.7213C40.5582 39.7933 40.4664 39.8447 40.3848 39.9065C40.344 39.9373 40.2623 39.9785 40.293 40.0402C40.3338 40.1123 40.395 40.0505 40.446 40.03C40.5582 39.9991 40.6705 39.9476 40.7725 39.9065C41.0072 39.8344 41.2215 39.8859 41.4255 40.0094C41.497 40.0505 41.5684 40.1226 41.5888 40.2049C41.6296 40.4107 41.6602 40.6165 41.6806 40.8326C41.6908 40.9149 41.6296 40.9663 41.5582 40.9972C41.3133 41.1001 41.0786 41.2133 40.8643 41.3574C40.7929 41.4088 40.7419 41.3676 40.7011 41.3265C40.5174 41.1516 40.344 40.9663 40.1909 40.74C40.1399 40.8429 40.1909 40.9149 40.2215 40.9869C40.2521 41.0487 40.2828 41.1207 40.3236 41.1721C40.7317 41.6558 40.895 42.2629 41.1602 42.8185C41.2215 42.942 41.1807 42.9832 41.0582 42.9934C40.9562 43.0037 40.8746 43.0037 40.7725 42.9626C40.5072 42.8494 40.2726 42.9214 40.0685 43.1066C39.8746 43.2816 39.7114 43.4771 39.5889 43.7034C39.5073 43.8578 39.4461 43.8166 39.3747 43.7034C39.2216 43.4565 39.2318 43.1581 39.1706 42.8803C39.1604 42.8288 39.1808 42.7568 39.14 42.7156C39.0788 42.7259 39.0584 42.7671 39.0584 42.8082C38.9869 43.2301 38.9461 43.652 39.2726 44.0019C39.4053 44.1459 39.5481 44.29 39.6604 44.4443C39.9154 44.7942 40.0175 45.1749 39.9256 45.6071C39.9052 45.7203 39.844 45.782 39.742 45.8232C39.5379 45.9055 39.344 45.9672 39.1094 45.8849C38.6196 45.7306 38.1298 45.7717 37.6401 46.0598C37.5993 45.5145 37.9156 45.072 37.987 44.5781C37.885 44.5781 37.8544 44.6604 37.8135 44.7119C37.385 45.319 37.2932 45.9775 37.487 46.6875C37.4972 46.7287 37.5074 46.7595 37.5176 46.8007C37.5585 46.9448 37.5789 47.1094 37.4462 47.1814C37.3034 47.2637 37.1401 47.3564 36.9565 47.2535C36.7728 47.1506 36.5789 47.1814 36.4055 47.2432C36.1198 47.3358 35.8341 47.3769 35.5382 47.4181C35.4464 47.4284 35.4055 47.4078 35.3851 47.3152C35.3341 47.1197 35.3239 46.9242 35.3749 46.7287C35.4464 46.492 35.5076 46.245 35.5484 45.9981C35.6096 45.6379 35.8239 45.3704 36.0892 45.1543C36.2728 45 36.4667 44.8662 36.6504 44.7221C36.732 44.6604 36.8238 44.5884 36.8646 44.4855C36.3239 44.681 35.8647 45 35.528 45.4733C35.1913 45.9466 35.1913 46.5435 35.028 47.0888C34.8444 46.9242 34.6607 46.739 34.4668 46.564C34.4158 46.5126 34.4566 46.4817 34.4668 46.4406C34.5179 46.3171 34.5791 46.2039 34.6403 46.0804C34.7525 45.854 34.7423 45.6894 34.5383 45.535C34.1505 45.2366 33.7424 44.9897 33.222 45.1029C33.1098 45.1337 33.069 45.0926 33.0486 44.9897C32.9771 44.681 33.069 44.4443 33.3445 44.2797C33.5383 44.1562 33.7628 44.0945 33.9771 44.0019C35.0178 43.5491 35.8035 42.8288 36.2524 41.7689C36.3239 41.6146 36.3851 41.45 36.4769 41.3059C36.8646 40.6679 36.9769 39.9682 36.9973 39.2376C36.9973 38.9392 36.9973 38.6408 37.0483 38.3218C37.4972 38.5482 37.5687 39.0421 37.8237 39.392C37.8442 39.3817 37.8646 39.3714 37.8646 39.3611C37.9156 38.7746 37.4564 38.1469 36.8952 38.0131C36.232 37.8588 35.579 37.8382 34.9158 37.9926C34.3852 38.116 33.824 38.1263 33.2832 38.2087C32.9976 38.2498 32.7119 38.3527 32.4262 38.4247C32.1609 38.4865 32.1609 38.4762 32.1507 38.2189C32.1405 37.725 31.967 37.3031 31.6099 36.9636C31.4671 36.8298 31.3446 36.6652 31.1916 36.552C30.6712 36.161 30.559 35.6465 30.7222 35.0394C30.7528 34.9262 30.8038 34.813 30.7834 34.6895C30.5283 34.8439 30.3855 35.3069 30.3447 35.8317C30.2733 35.8523 30.2324 35.8111 30.2018 35.7699C29.9059 35.3995 29.6611 34.9982 29.8141 34.4837C29.9059 34.175 29.9774 33.8663 30.1406 33.5988C30.1712 33.5473 30.212 33.4856 30.2018 33.4136C29.9978 33.4856 29.7427 33.8869 29.6202 34.3191C29.5182 34.6895 29.508 35.0497 29.6509 35.4098C29.2733 35.132 29.1101 34.741 29.008 34.2985C28.9162 33.8663 28.9162 33.4239 28.957 32.9814C28.8142 33.1152 28.7938 33.2901 28.7632 33.4547C28.6509 34.1853 28.7223 34.8644 29.2529 35.4304C29.4264 35.6156 29.6406 35.7699 29.8651 35.8934C30.5283 36.2536 31.0691 36.7578 31.5691 37.3237C31.9364 37.7353 31.9466 38.2292 31.814 38.7231C31.7629 38.9392 31.6711 39.145 31.5997 39.3611C31.5691 39.464 31.5181 39.5669 31.4262 39.6698C31.2834 39.1656 31.1507 38.682 30.9263 38.2189C30.661 37.6736 30.3549 37.1591 29.8345 36.8195C29.2529 36.4388 28.6611 36.0786 28.0591 35.7082C27.8551 35.5847 27.6714 35.4407 27.4775 35.2966C26.9572 34.8953 26.7939 34.3294 26.7021 33.7017C26.6409 33.2798 26.6613 32.8579 26.7327 32.436C26.7429 32.364 26.7429 32.292 26.7429 32.2097C26.6511 32.2508 26.6409 32.3228 26.6103 32.3949C26.3756 32.9917 26.3858 33.5885 26.5184 34.2059C26.549 34.3499 26.5694 34.5043 26.5898 34.6586C26.6 34.7513 26.5694 34.813 26.4776 34.8336C26.1307 34.9056 25.9266 34.8233 25.743 34.5146C25.6715 34.4014 25.6103 34.2882 25.5287 34.1853C25.345 33.9384 25.1002 33.8252 24.8043 33.8046C24.7022 33.7943 24.6104 33.7737 24.5084 33.784C23.8553 33.8355 23.2533 33.6091 22.6411 33.4547C22.2024 33.3415 21.7637 33.4341 21.3351 33.4547C20.6209 33.4856 20.1821 34.0104 19.6924 34.422C19.2842 34.7718 18.9985 35.2349 18.9067 35.7699C18.7843 36.4902 18.8251 37.2002 19.3557 37.7868C19.4067 37.8382 19.4373 37.9 19.4679 37.972C18.7537 37.7559 18.4884 37.19 18.3455 36.5211C18.1313 37.2414 18.6006 37.7765 18.8965 38.4042C18.3659 38.3218 17.866 38.1572 17.6109 37.7353C17.2742 37.1694 17.2538 36.5211 17.6823 35.9243C17.5905 35.9243 17.5395 35.9757 17.4884 36.0169C17.1211 36.3565 16.9987 36.7681 17.1517 37.262C17.1823 37.3546 17.213 37.4472 17.2436 37.5398C17.3558 37.8279 17.4374 38.1058 17.4272 38.4247C17.417 38.7746 17.5089 39.0936 17.8252 39.3302C17.6313 39.4229 17.468 39.32 17.315 39.2891C17.0905 39.2479 16.9171 39.1553 16.866 38.8878C16.8456 38.7643 16.764 38.6408 16.6824 38.5379C16.4171 38.1881 16.1416 37.8382 15.8661 37.4986C15.8253 37.4575 15.7845 37.4163 15.7233 37.3958C15.8049 37.8176 15.9375 38.2086 16.2844 38.4968C16.4885 38.6717 16.611 38.8878 16.6824 39.145C16.7538 39.4023 16.5293 39.9476 16.2947 40.0608C16.213 40.102 16.162 40.102 16.1416 39.9888C16.111 39.8344 16.06 39.6801 16.0192 39.536C15.9069 39.1965 15.6825 38.9701 15.3049 38.8055C15.3968 38.9392 15.458 39.0421 15.5192 39.145C15.6518 39.3302 15.7233 39.5463 15.7743 39.7624C15.8049 39.9168 15.8151 39.9168 15.6314 39.9065C15.8457 40.174 16.0498 40.4518 16.1518 40.8223C15.4376 40.5959 14.8764 40.2152 14.5601 39.5052C14.458 39.8242 14.5703 40.0608 14.7539 40.246C14.9886 40.4724 15.06 40.7194 15.009 41.0281C14.9682 41.2647 14.9376 41.5014 14.8458 41.7484C14.7233 41.5323 14.6927 41.2956 14.6213 41.0795C14.5805 40.9458 14.4989 40.8531 14.3764 40.7811C14.1621 40.6576 13.9377 40.565 13.7132 40.493C13.652 40.4724 13.5908 40.4518 13.5091 40.493C13.6826 40.6268 13.8356 40.7708 14.0091 40.8943C14.2642 41.0692 14.3764 41.2956 14.3356 41.6043C14.3152 41.7689 14.305 41.9439 14.2948 42.1291C14.1417 42.0365 14.0193 41.9542 13.8765 41.8821C13.6724 41.7792 13.4479 41.7072 13.2438 41.8718C13.0194 42.0571 12.9479 42.3143 13.0092 42.5921C13.0908 42.9729 13.3867 43.1889 13.6826 43.3947C13.8152 43.4874 13.9683 43.5594 14.1009 43.6417C14.1928 43.6932 14.2744 43.7755 14.203 43.8784C14.1315 43.9813 14.1111 44.1356 13.9173 44.115C13.3969 44.0739 12.9173 44.1871 12.5296 44.5781C12.346 44.7633 11.9786 44.6398 11.897 44.3826C11.8358 44.1871 11.846 43.9813 11.846 43.7755C11.846 43.6829 11.8358 43.6108 11.7133 43.6108C11.5807 43.6108 11.5807 43.6726 11.5807 43.7652C11.5501 44.3105 11.6623 44.8353 11.9276 45.3087C12.0092 45.463 11.9786 45.6277 11.999 45.782C12.0194 45.8952 11.9072 45.9466 11.795 45.8643C11.6317 45.7511 11.4481 45.6791 11.244 45.6688C10.7746 45.6585 10.4481 45.8746 10.2339 46.2862C10.193 46.3582 10.193 46.492 10.0604 46.4611C9.94816 46.4303 9.92775 46.3274 9.91755 46.2245C9.88694 45.6174 9.78491 45.0205 9.89714 44.4134C9.93796 44.1768 9.90735 43.9298 9.90735 43.652C9.66247 44.2385 9.52982 44.7942 9.59104 45.391C9.60125 45.4424 9.61145 45.4939 9.61145 45.5453C9.61145 45.6277 9.55023 45.6791 9.48901 45.71C9.42779 45.7511 9.39718 45.6688 9.36657 45.6379C9.01966 45.2984 8.57071 45.2263 8.12176 45.1955C7.91769 45.1852 7.77485 45.3292 7.6218 45.4527C7.55037 45.5145 7.51976 45.5042 7.42793 45.4424C7.22386 45.3087 7.20346 45.1543 7.23407 44.9279C7.26468 44.7221 7.30549 44.5678 7.47895 44.4237C7.82586 44.1562 8.15237 43.8784 8.29522 43.4359C8.34623 43.261 8.46867 43.1169 8.63193 43.0037C8.77477 42.9008 8.8564 42.7465 8.94823 42.6024C9.33596 42.0056 9.69308 41.3882 10.0298 40.7605C10.3461 40.174 10.4379 39.5258 10.6318 38.8981C10.7746 38.4247 10.8971 37.9411 11.0297 37.4678C11.0501 37.3752 11.1011 37.3237 11.1828 37.2723C11.4379 37.1282 11.6623 36.9533 11.8664 36.7372C11.9378 36.6549 12.0194 36.6343 12.1215 36.6343C12.3766 36.6343 12.6214 36.5828 12.8663 36.4799C13.0806 36.3873 13.3153 36.4079 13.5397 36.4079C14.1213 36.4182 14.5499 36.1918 14.8254 35.667C14.8662 35.5744 14.9478 35.5333 15.0294 35.4921C15.5906 35.2143 16.1824 34.9776 16.6518 34.5455C16.8456 34.3602 17.0293 34.175 17.1415 33.9281C17.1925 33.8149 17.2742 33.7428 17.3762 33.6811C17.6823 33.5062 17.917 33.2798 18.1109 32.9814C18.2027 32.8476 18.3353 32.7447 18.4578 32.6315C18.9577 32.1788 19.1822 31.5923 19.2638 30.9337C19.2944 30.6765 19.3148 30.4192 19.274 30.162C19.2434 29.915 19.1618 29.6783 19.07 29.4005C19.2128 29.4828 19.3148 29.5446 19.4271 29.6063C19.6209 29.7298 19.825 29.7504 20.0495 29.6989C20.3556 29.6166 20.6719 29.5857 20.8964 29.3285C20.9474 29.277 21.0698 29.277 21.1515 29.2667C21.7739 29.1536 22.1106 28.7523 22.3044 28.1554C21.9677 28.2892 21.6616 28.4333 21.3045 28.3612C20.978 28.2995 20.6617 28.2172 20.3556 28.0114C20.529 27.9805 20.6821 27.9599 20.8249 27.9291C21.4269 27.8056 21.7637 27.3837 21.9779 26.8486C22.0289 26.7251 22.0698 26.684 22.2126 26.7149C22.6309 26.8075 23.0493 26.7354 23.4676 26.6943C24.5288 26.5914 25.5797 26.5811 26.6409 26.6943C27.6612 26.8075 28.6713 26.9104 29.6815 27.0544C30.6406 27.1882 31.5589 27.466 32.4874 27.713C34.375 28.2275 36.2524 28.8037 38.1503 29.2565C39.1196 29.4828 40.0889 29.5754 41.0684 29.2873C42.0173 29.0095 42.7112 27.8982 42.5377 26.9618C42.4765 26.6531 42.3336 26.4062 42.1092 26.2004C41.1807 25.3463 40.0889 24.9553 38.8339 25.1096C36.6504 25.3772 34.5281 25.9431 32.4058 26.4782C31.3752 26.7354 30.3345 26.7457 29.2937 26.5091C28.804 26.3959 28.4162 26.1489 28.1306 25.727C27.7122 25.1096 27.4061 24.4614 27.2837 23.7205C27.2327 23.3912 27.2837 23.0722 27.3551 22.7533C27.4571 22.2902 27.6204 21.858 27.7938 21.4156C28.1612 20.5101 28.804 19.9132 29.6917 19.5428C30.8957 19.0386 32.1099 19.018 33.3445 19.3679C34.5995 19.728 35.7933 20.2322 36.9973 20.7056C38.2013 21.1789 39.4461 21.4773 40.7011 21.7448C41.4255 21.8992 42.1398 21.7963 42.8336 21.4362C42.7724 21.6008 42.6703 21.7037 42.5581 21.7963C42.1296 22.1564 41.6296 22.3828 41.1194 22.5989C40.8746 22.7018 40.6195 22.8047 40.3746 22.9282C40.5787 22.9796 40.7725 22.9179 40.9664 22.8664C41.6092 22.6812 42.2112 22.424 42.7418 21.9918C43.3234 21.5082 43.5172 20.8805 43.4152 20.1499C43.405 20.0676 43.3948 19.975 43.3846 19.8927C43.354 19.9132 43.3438 19.8618 43.3846 19.8206Z" fill="#C8B86F"/>
<path d="M10.7937 37.2004C10.9059 36.9638 11.0692 36.758 11.1508 36.5213C11.3039 36.0583 11.3651 35.6055 11.2324 35.1219C11.1202 34.7103 11.0488 34.2781 10.9671 33.8665C10.9569 33.7945 10.9365 33.7225 10.9059 33.6196C10.7937 33.9797 10.8549 34.2987 10.9059 34.6074C10.9875 35.0807 11.0896 35.5335 11.0182 36.0171C10.9467 36.4493 10.7631 36.7888 10.406 37.0049C10.2631 36.758 10.4672 36.6345 10.5998 36.4801C10.8141 36.2332 10.8651 35.9451 10.7835 35.6261C10.6508 35.1013 10.4876 34.5868 10.2121 34.1135C9.9468 33.671 9.87538 33.1771 9.79375 32.6832C9.6203 31.613 9.88558 30.5943 10.1917 29.5962C10.3549 29.0509 10.7937 28.6701 11.2222 28.3203C11.2936 28.2585 11.3855 28.2174 11.4467 28.0836C11.0692 28.238 10.7529 28.4335 10.4876 28.6907C10.3447 28.8245 10.1917 28.8965 10.008 28.9171C9.45704 28.9788 8.95708 28.8862 8.57955 28.4335C8.54894 28.4026 8.50813 28.3614 8.50813 28.3203C8.47752 27.8778 8.38569 27.4251 8.7122 26.9929C8.78362 27.4148 9.08972 27.5588 9.42643 27.672C9.80396 27.7955 10.1713 27.8058 10.5284 27.6206C10.8345 27.4662 11.11 27.2604 11.3957 27.0752C11.7528 26.8282 12.1303 26.6842 12.5691 26.7048C12.8548 26.7253 12.9364 26.6533 13.0384 26.3858C13.0792 26.2829 13.0996 26.1697 13.2017 26.0668C13.4466 26.499 13.8955 26.6327 14.2832 26.8488C14.3853 26.9106 14.4261 26.9003 14.4261 26.7665C14.4159 26.3755 14.4975 25.9948 14.6812 25.6346C15.0077 26.1697 15.3342 26.3343 15.8035 26.2211C16.079 26.1594 16.1913 25.933 16.2627 25.3362C16.5178 25.5008 16.7524 25.6758 16.7218 26.0153C16.7116 26.1285 16.7729 26.1491 16.8443 26.18C16.9361 26.2314 16.9769 26.1594 17.0177 26.1079C17.3442 25.6861 17.5075 25.2333 17.3544 24.6879C17.2626 24.369 17.181 24.05 16.9871 23.7516C17.5075 23.875 18.0279 24.0088 18.3646 23.4634C18.6299 23.021 18.6911 22.5477 18.3952 22.0743C18.2625 22.1875 18.1299 22.2904 17.9973 22.3933C17.8544 22.5065 17.7116 22.5168 17.5381 22.4653C17.079 22.3213 16.7933 22.0332 16.7422 21.5392C16.7014 21.0865 16.8545 20.7161 17.2422 20.4485C17.4157 20.325 17.6197 20.2427 17.7626 20.0472C17.2116 20.1604 16.5178 20.5411 16.4872 21.2408C16.4668 21.6524 16.5586 22.0126 16.7524 22.3624C16.9361 22.6917 17.6503 22.8769 18.0075 22.702C18.0687 22.6711 18.1299 22.6403 18.2217 22.5888C18.1911 22.7637 18.1707 22.9181 18.1299 23.0724C18.0177 23.4943 17.7524 23.6487 17.3238 23.5458C17.0687 23.484 16.8341 23.3811 16.6096 23.2679C16.528 23.2268 16.477 23.2165 16.4157 23.2988C16.3545 23.3914 16.3545 23.4429 16.4361 23.5149C16.8953 23.9059 17.0381 24.441 17.1504 24.9966C17.2014 25.2436 17.0994 25.4597 16.9565 25.6758C16.681 25.1407 16.1504 24.9658 15.6709 24.7085C15.7321 24.8217 15.7933 24.9349 15.8648 25.0481C16.0382 25.3156 15.9872 25.5935 15.8546 25.861C15.8443 25.8919 15.8239 25.9227 15.7933 25.933C15.6097 26.0462 15.1505 25.9227 15.0383 25.7272C14.9465 25.5626 14.875 25.3979 14.8852 25.2024C14.8852 25.1613 14.9056 25.0995 14.8546 25.079C14.8036 25.0584 14.773 25.1098 14.7322 25.1407C14.4669 25.3259 14.3649 25.614 14.273 25.9022C14.2118 26.0874 14.1812 26.2726 14.1404 26.4578C13.8037 26.3549 13.5588 26.1491 13.3751 25.8713C13.2425 25.6655 13.1609 25.6655 13.0078 25.8507C12.8956 25.9742 12.8344 26.1285 12.7935 26.2932C12.7629 26.4064 12.7017 26.4578 12.5997 26.4475C12.1813 26.3858 11.7834 26.5195 11.3549 26.6327C11.4875 26.2623 11.4467 25.8816 11.5589 25.5317C11.5997 25.4185 11.6508 25.3671 11.7732 25.3568C12.1711 25.3465 12.5589 25.2745 12.9262 25.151C13.722 24.8937 14.0996 23.9882 13.722 23.2371C13.6914 23.1753 13.7016 23.1239 13.7016 23.0724C13.7629 22.5168 13.569 22.2081 13.069 21.9405C12.5589 21.673 12.0385 21.6627 11.5385 21.9097C11.2324 22.064 10.9977 22.0332 10.7223 21.8891C10.4774 21.7656 10.3958 21.5084 10.5284 21.2614C10.5998 21.1276 10.7019 21.0453 10.8141 20.9733C10.8957 20.9219 10.9263 20.8601 10.8753 20.7572C10.8345 20.6543 10.7733 20.6646 10.6916 20.6749C10.4978 20.6955 10.3039 20.6337 10.1203 20.5617C10.008 20.5205 9.98762 20.4279 10.0182 20.3147C10.0794 20.0781 10.2019 19.9752 10.4468 19.9237C10.9875 19.8003 11.5079 19.6253 12.0283 19.4504C12.1609 19.4092 12.1915 19.4092 12.2324 19.5739C12.314 19.9032 12.5181 20.1707 12.8854 20.2427C13.018 20.2736 13.0894 20.3456 13.1711 20.4691C13.5078 20.9733 13.9057 21.3643 14.5893 21.3232C15.324 21.2717 15.7321 20.963 15.9056 20.2324C15.926 20.1295 15.9668 20.1192 16.0484 20.1295C16.2831 20.1398 16.5076 20.0781 16.7422 19.9649C16.4463 19.862 16.1504 19.9237 15.875 19.862C15.6607 19.8208 15.4668 19.7591 15.2934 19.6356C14.6812 19.2343 14.0894 19.2961 13.518 19.7076C13.3343 19.8414 13.1507 19.9443 12.9262 19.934C12.8139 19.934 12.7425 19.8929 12.6711 19.8105C12.4364 19.4916 12.5078 18.761 12.8139 18.514C13.0078 18.3597 13.2629 18.3494 13.4976 18.2979C14.1302 18.1642 14.773 18.0818 15.426 18.051C15.8239 18.0304 16.2117 17.9275 16.579 17.7526C16.9463 17.5674 17.1708 17.2792 17.2626 16.8779C17.5891 17.1249 17.6707 17.4439 17.5993 17.8143C17.5789 17.9069 17.5687 18.0098 17.5483 18.1024C17.4973 18.3391 17.5891 18.4523 17.8238 18.4523C18.1197 18.4626 18.3952 18.5963 18.6197 18.7507C18.8237 18.8845 18.8339 19.1932 18.9054 19.4298C19.0278 19.8826 18.8645 20.2839 18.6707 20.6852C18.6401 20.7572 18.5686 20.7572 18.5074 20.7675C18.283 20.819 18.1707 20.9527 18.1605 21.1894C18.1503 21.5495 18.2932 21.8479 18.5891 22.0537C18.8747 22.2492 19.1706 22.1978 19.4563 22.0332C19.5074 22.0023 19.5686 21.9714 19.64 21.9303C19.7114 22.3727 19.64 22.7534 19.2931 23.0519C19.0788 23.2371 18.9972 23.4943 18.9666 23.7721C18.9564 23.9677 19.0074 24.1014 19.1808 24.2043C19.3543 24.3072 19.5176 24.3381 19.7012 24.2352C19.7318 24.2146 19.7522 24.194 19.7828 24.1837C19.9869 24.0397 20.0277 24.05 20.0685 24.3175C20.1094 24.5748 20.0175 24.7188 19.7828 24.8011C19.6094 24.8629 19.4359 24.9143 19.2829 25.0172C19.089 25.151 19.0278 25.3259 19.0992 25.5523C19.2625 26.1079 19.793 26.3961 20.4359 26.2932C20.8542 26.2211 21.2623 26.1903 21.6909 26.2623C21.8439 26.2829 21.8541 26.3549 21.8337 26.4887C21.6807 27.2913 20.895 27.8572 20.0889 27.744C20.0073 27.7337 19.9665 27.672 19.9155 27.6206C19.6808 27.3736 19.4461 27.1164 19.2115 26.8591C19.3543 27.7955 20.8644 28.7216 21.8235 28.5055C21.7317 28.7422 21.4256 28.9377 21.0685 29.0097C20.7522 29.0714 20.4767 29.02 20.2216 28.8245C19.9767 28.6393 19.7216 28.4746 19.4563 28.2894C19.5278 28.5364 19.7624 28.773 20.5073 29.3184C20.1298 29.4316 19.793 29.5551 19.4053 29.3081C18.6299 28.8245 18.283 28.0939 18.0993 27.2501C18.0381 26.9517 18.0279 26.6533 17.9973 26.3137C17.9054 26.4784 17.9156 26.6224 17.8952 26.7665C17.8034 27.3736 17.885 27.9395 18.2727 28.4335C18.6707 28.948 18.9462 29.5448 19.0278 30.1827C19.1298 30.9545 19.0074 31.7056 18.385 32.3539C18.4054 32.1893 18.4054 32.0761 18.4258 31.9732C18.4768 31.6851 18.4564 31.4072 18.4156 31.1191C18.3748 30.8413 18.3952 30.5635 18.3442 30.2856C18.283 29.8843 18.0687 29.6168 17.732 29.5139C17.7014 29.5653 17.7524 29.5962 17.7728 29.6271C17.9871 29.9461 18.1095 30.2959 18.0993 30.6869C18.0993 31.0471 18.1911 31.4072 18.1707 31.7777C18.1401 32.3333 17.9973 32.8478 17.5585 33.2285C17.5075 33.2697 17.4667 33.3212 17.3851 33.3314C17.4361 32.9816 17.3953 32.6317 17.3953 32.2819C17.4055 31.5822 17.2218 30.9545 16.8851 30.3577C16.6504 29.9461 16.4157 29.5345 16.2219 29.092C16.0382 28.6804 16.0382 28.2791 16.1811 27.8572C16.2627 27.6103 16.3545 27.3736 16.4361 27.1266C16.4668 27.0443 16.4872 26.962 16.4565 26.8591C16.2117 27.0855 16.079 27.3736 15.9566 27.6617C15.6607 28.3511 15.8239 28.9788 16.1607 29.5962C16.4055 30.0593 16.6912 30.4914 16.8851 30.9853C17.1912 31.7468 17.2116 32.5391 17.0892 33.3314C16.9973 33.9591 16.3749 34.6074 15.6709 34.8646C16.1504 33.8665 16.0688 32.9198 15.5791 32.004C15.4974 31.8497 15.3954 31.6954 15.2015 31.5822C15.2628 31.8703 15.3852 32.1069 15.477 32.3539C15.5893 32.642 15.6709 32.9301 15.7117 33.2285C15.7627 33.5578 15.7423 33.8871 15.6301 34.2061C15.5689 34.3913 15.5178 34.5662 15.4566 34.7514C15.3852 34.9778 15.3036 35.0601 15.0689 35.1527C15.0995 34.9161 15.1505 34.6691 15.1607 34.4325C15.1913 33.599 14.9771 32.8272 14.5383 32.1172C14.3036 31.7468 14.0486 31.3764 13.9567 30.9339C13.8445 30.4194 13.9057 29.8946 13.9771 29.3801C14.0384 28.9274 14.1506 28.4849 14.273 28.0527C14.2016 28.0322 14.1914 28.0939 14.171 28.1248C13.8853 28.5672 13.7118 29.0406 13.6812 29.5653C13.671 29.7917 13.6608 30.0181 13.6404 30.2342C13.5894 30.8207 13.7629 31.3558 14.069 31.8497C14.1914 32.0555 14.3036 32.2613 14.4261 32.4671C14.926 33.28 14.9975 34.1649 14.7934 35.0807C14.722 35.4203 14.5179 35.7084 14.2628 35.9451C14.12 36.0788 13.9363 36.1097 13.7527 36.1303C13.6404 36.1406 13.5282 36.1406 13.4261 36.1509C14.1812 35.1322 13.8649 33.6607 13.0792 33.1256C13.1098 33.352 13.2119 33.5372 13.3139 33.7225C13.5894 34.2061 13.6302 34.7206 13.5588 35.2556C13.4874 35.7598 13.069 36.192 12.5078 36.3258C12.4262 36.3464 12.3446 36.3567 12.2222 36.3772C12.4364 36.0685 12.5691 35.7701 12.6201 35.4203C12.6915 34.9264 12.6507 34.4427 12.4466 33.99C12.0385 33.1051 11.9161 32.1584 11.9467 31.2014C11.9773 30.2651 12.3548 29.4213 12.8548 28.6393C12.9874 28.4335 13.12 28.2277 13.2323 28.0116C12.6201 28.5261 12.1915 29.1538 11.9365 29.9255C11.6916 30.6767 11.6304 31.4278 11.7222 32.2098C11.8038 32.889 11.9671 33.5269 12.2222 34.1546C12.7017 35.3688 12.1813 36.3361 11.1202 36.9741C11.0182 37.077 10.9059 37.1387 10.7937 37.2004Z" fill="#C8B86F"/>
<path d="M17.7434 10.5392C17.8046 10.4569 17.7536 10.4055 17.7026 10.354C17.5801 10.1997 17.4679 10.0453 17.3659 9.87039C17.1822 9.53082 17.1516 9.19126 17.3149 8.83111C17.4271 8.58415 17.5291 8.32691 17.5801 8.04908C17.6516 8.0285 17.6107 8.11082 17.6414 8.12111C17.6414 8.47096 17.6924 8.82082 17.7332 9.17068C17.8046 9.70575 18.0903 10.1482 18.4066 10.5598C18.7229 10.9714 19.0902 11.3213 19.529 11.6094C19.5902 11.6505 19.6514 11.7637 19.7433 11.6402C19.8249 11.5271 19.7126 11.5065 19.6616 11.455C19.2025 10.992 18.7943 10.4981 18.427 9.963C18.0801 9.45879 18.0597 8.89285 18.0291 8.31662C17.9781 7.24647 18.2638 6.24835 18.6413 5.27081C18.7841 4.91067 18.8454 4.52994 18.927 4.1698C19.0086 3.80965 18.8862 3.4495 18.8045 3.09965C18.7943 3.0482 18.7739 3.00704 18.7943 2.93501C19.3249 3.34661 19.7943 3.77878 20.1412 4.34472C20.3146 4.63284 20.5391 4.91067 20.6207 5.22965C20.7228 5.60009 20.8146 5.9911 20.8758 6.37183C20.9983 7.1127 20.9575 7.85357 20.9064 8.58415C20.835 9.77778 21.1411 10.8582 21.7533 11.8666C21.7839 11.9181 21.7839 12.0004 21.8962 11.9592C22.0084 11.9078 21.9574 11.846 21.9268 11.7843C21.6615 11.0949 21.4166 10.3849 21.3656 9.64401C21.3248 9.0472 21.335 8.44009 21.3554 7.84328C21.3758 7.25676 21.3554 6.67024 21.2738 6.08371C21.2431 5.85734 21.2329 5.63096 21.2023 5.41487C21.0595 4.52994 21.3452 3.73762 21.6921 2.96588C21.9268 2.4411 22.3655 2.06037 22.7736 1.66936C22.8553 1.58704 22.9471 1.51501 23.0695 1.41211C22.9777 1.85457 22.9063 2.25588 22.8043 2.64689C22.5696 3.53182 22.6308 4.39617 22.9063 5.26052C23.0185 5.62067 23.2634 5.90878 23.4267 6.23806C23.7532 6.9069 24.2327 7.47285 24.6001 8.11082C24.7633 8.38864 24.7939 8.70763 24.8449 9.02662C24.9572 9.66459 25.049 10.3026 25.0184 10.9611C25.0184 11.1052 24.9878 11.2492 24.9776 11.3933C24.9674 11.5373 25.0184 11.5785 25.1408 11.4859C25.3245 11.3521 25.549 11.3007 25.7326 11.1669C26.1306 11.0434 26.3346 10.745 26.4469 10.3643C26.5489 10.0247 26.5387 9.68517 26.4673 9.3456C26.3142 8.58415 26.1306 7.83299 25.8959 7.10241C25.5796 6.11458 25.651 5.1782 26.1306 4.2624C26.2326 4.07719 26.3142 3.87139 26.406 3.6553C25.5592 4.0669 24.947 4.65342 24.7225 5.56922C24.6613 5.81618 24.5388 6.05284 24.6001 6.32038C24.5592 6.56734 24.498 6.804 24.3348 6.99951C24.2429 6.88632 24.1919 6.75255 24.1409 6.61879C24.0899 6.45415 24.0695 6.2998 24.1715 6.14545C24.1817 6.12487 24.3042 6.03226 24.1307 6.03226C24.0695 6.03226 24.1103 5.93965 24.1307 5.87792C24.3246 5.06502 24.7429 4.37559 25.2837 3.74791C25.7326 3.22313 26.2734 2.90414 26.9468 2.83211C26.9876 2.83211 27.0387 2.83211 27.0897 2.83211C27.0591 2.96588 26.9774 3.06878 26.9162 3.18197C26.5489 3.85081 26.3856 4.5711 26.3142 5.32226C26.304 5.46632 26.2122 5.56922 26.1918 5.70299C26.0795 6.2998 26.0897 6.88632 26.2938 7.46256C26.3754 7.69922 26.4571 7.93589 26.5489 8.17256C26.8448 8.85169 26.8346 9.56169 26.7326 10.282C26.6611 10.7759 26.5795 11.2595 26.5081 11.7534C26.4979 11.8152 26.4571 11.8666 26.5591 11.9181C26.6611 11.9592 26.6611 11.8769 26.7121 11.8358C26.7326 11.8049 26.753 11.7637 26.7938 11.7534C27.1101 11.5991 27.3856 11.3624 27.6713 11.1566C27.7223 11.1258 27.7733 11.1052 27.8141 11.0537C28.1814 10.6318 28.3753 10.1276 28.3855 9.57198C28.3855 9.26328 28.3141 8.9443 28.2733 8.62531C28.2222 8.27546 28.161 7.9256 28.0692 7.57575C27.8855 6.89661 27.8957 6.21748 28.1406 5.54864C28.212 5.34284 28.2835 5.13704 28.3447 4.90038C28.0182 4.97241 27.7325 5.09588 27.4774 5.2811C27.0795 5.56922 26.906 6.02197 26.7326 6.47473C26.7121 6.51589 26.7326 6.56734 26.7326 6.6085C26.7224 6.7114 26.7121 6.81429 26.5999 6.86574C26.5183 6.51589 26.6101 6.22777 26.7734 5.90878C27.1407 5.1782 27.6713 4.63284 28.3243 4.18009C28.7018 3.92284 28.9467 3.88168 29.4773 3.92284C29.3038 4.19038 29.1201 4.44762 28.9569 4.71516C28.7018 5.12675 28.4977 5.55893 28.4671 6.05284C28.4569 6.17632 28.4875 6.2998 28.4875 6.42328C28.4569 7.10241 28.6712 7.76096 28.7426 8.4298C28.8344 9.29415 28.8038 10.1482 28.3039 10.92C28.1304 11.1875 27.9876 11.4653 27.8345 11.7431C27.8039 11.7946 27.7529 11.846 27.8345 11.9078C27.9161 11.9695 27.9468 11.9078 27.9876 11.8563C28.2937 11.4653 28.5896 11.0743 28.8242 10.6318C29.1201 10.0865 29.1405 9.47937 29.1712 8.88256C29.1916 8.37836 29.0895 7.88444 29.0589 7.38024C29.0487 7.14357 29.0691 6.93777 29.1507 6.70111C29.1916 6.59821 29.1814 6.45415 29.2426 6.33067C29.6609 5.45603 30.3854 4.90038 31.2016 4.44762C31.222 4.43733 31.2526 4.42704 31.3037 4.41675C31.2628 4.58139 31.2118 4.72545 31.1812 4.86951C31.0588 5.37371 31.2016 5.85734 31.3139 6.33067C31.4669 6.95835 31.6608 7.57574 31.7526 8.22401C31.9975 9.91155 31.3343 11.3521 29.9058 12.165C29.3548 12.484 28.7834 12.7721 28.212 13.05C28.1304 13.0911 28.0488 13.1014 27.9672 13.1014C27.0489 13.0397 26.1408 12.9676 25.2225 12.8853C24.3552 12.803 23.4981 12.8236 22.6308 12.8545C21.1309 12.8956 19.6412 13.1323 18.1617 13.3689C17.9066 13.4101 17.6618 13.3381 17.4169 13.3072C16.7639 13.2146 16.1007 13.1323 15.5293 12.7927C14.3967 12.1239 13.7131 11.136 13.6518 9.77778C13.6212 9.05749 13.6825 8.34749 13.9171 7.66835C14.06 7.25676 14.2845 6.89661 14.4885 6.51589C14.8048 5.91907 15.0803 5.32226 14.7946 4.61226C14.9171 4.65342 14.9477 4.74603 14.9987 4.80777C15.1619 5.05473 15.2742 5.33255 15.4272 5.5898C15.5701 5.82647 15.5599 6.07342 15.5089 6.33067C15.4476 6.6085 15.3762 6.88632 15.264 7.14357C14.9885 7.75067 15.0293 8.37836 15.1619 9.00604C15.4374 10.354 16.2129 11.3418 17.3149 12.1033C17.3863 12.1547 17.4781 12.1959 17.5597 12.2371C17.6107 12.2576 17.672 12.3091 17.723 12.2165C17.7638 12.1342 17.723 12.1033 17.6618 12.0518C17.3148 11.7637 16.9883 11.4344 16.672 11.1155C15.9782 10.4055 15.5905 9.54111 15.4374 8.56357C15.3864 8.24459 15.4374 7.9256 15.5395 7.62719C15.7231 7.1127 15.917 6.59821 16.0496 6.06313C16.1211 5.78531 16.2231 5.51777 16.3353 5.25023C16.5394 4.74603 16.5292 4.23154 16.417 3.71704C16.4068 3.66559 16.3863 3.61414 16.417 3.54211C16.7026 3.71704 16.9985 3.88168 17.2128 4.14922C17.4679 4.4682 17.6924 4.80777 17.9373 5.13704C17.9679 5.18849 18.0393 5.23994 17.9373 5.29139C17.9271 5.30168 17.9168 5.32226 17.9373 5.33255C18.1413 5.49719 18.0393 5.70299 17.9985 5.87792C17.9066 6.2998 17.7842 6.7114 17.6618 7.17444C17.5801 6.42328 17.4781 5.73386 17.3149 4.99299C17.223 5.25023 17.1516 5.45603 17.07 5.66183C16.8965 6.14545 16.6822 6.61879 16.4374 7.07154C16.1721 7.55516 16.0496 8.07995 16.0088 8.62531C15.9782 8.96488 15.9068 9.30444 15.9578 9.6543C15.9782 9.76749 16.0088 9.87039 16.0394 9.98358C16.0598 10.0556 16.1006 10.0968 16.1823 10.0762C16.3149 10.1585 16.3659 10.3129 16.468 10.426C16.8251 10.8376 17.2842 11.0537 17.8046 11.1669C17.9373 11.1978 18.0699 11.2287 18.2536 11.2492C18.1005 11.0846 17.9679 10.9611 17.8454 10.8273C17.8352 10.6833 17.7536 10.6318 17.7434 10.5392Z" fill="#C8B86F"/>
<path d="M4.26356 28.3723C4.16153 28.5163 4.0697 28.6707 3.96767 28.8147C3.79421 29.072 3.53913 29.144 3.26364 29.0205C3.00855 28.9073 2.80448 28.7427 2.63103 28.4752C2.8657 28.5266 3.00855 28.7221 3.22282 28.7118C3.4575 28.7118 3.63096 28.5678 3.7636 28.3928C3.89624 28.2385 4.0799 28.1047 4.00848 27.8475C3.86563 27.9812 3.74319 28.115 3.60035 28.2282C3.28404 28.5163 3.03916 28.4854 2.79428 28.1459C2.67184 27.9812 2.5596 27.8166 2.42696 27.6314C2.64123 27.652 2.81469 27.7652 3.00855 27.6828C3.29425 27.5696 3.50852 27.3947 3.62075 27.1066C3.79421 26.6744 3.94726 26.2423 3.93706 25.7689C3.93706 25.6866 3.94726 25.6146 3.96767 25.5323C3.99828 25.3573 3.98807 25.1927 3.91665 25.028C3.79421 24.7502 3.7636 24.7296 3.47791 24.8325C3.1616 24.9457 2.8453 25.028 2.5596 24.7502C2.49838 24.6885 2.44737 24.6473 2.5596 24.5753C3.03916 24.2563 2.91672 23.392 2.42696 23.145C2.26371 23.0627 2.2535 23.0112 2.33513 22.8466C2.50859 22.5173 2.79428 22.5276 3.06977 22.5173C3.33506 22.507 3.4677 22.6922 3.56974 22.9083C3.70238 23.2067 3.80441 23.5051 3.94726 23.855C4.0697 23.4331 4.02889 23.0833 3.82482 22.754C3.53913 22.2807 3.12079 22.1778 2.62082 22.3012C2.60042 21.7456 2.93713 21.3957 3.30445 21.087C3.59014 20.8504 4.0595 21.015 4.19214 21.3546C4.30438 21.653 4.33499 21.9617 4.3656 22.2704C4.3758 22.3836 4.39621 22.507 4.47784 22.6099C4.55946 22.5482 4.55946 22.4659 4.55946 22.3836C4.55946 21.8176 4.50845 21.2517 4.21255 20.7578C3.94726 20.305 4.03909 19.8728 4.25336 19.4406C4.29417 19.348 4.33499 19.3789 4.39621 19.4098C4.63089 19.5435 4.87577 19.6464 5.16146 19.6362C5.34512 19.6259 5.50837 19.5538 5.67163 19.5024C5.92671 19.4201 6.01854 19.4612 6.08997 19.7288C6.13078 19.8934 6.17159 20.058 6.2022 20.233C6.23281 20.3564 6.21241 20.4696 6.15119 20.5931C5.84509 21.2825 5.86549 22.0028 5.90631 22.7643C6.01854 22.6305 6.04915 22.507 6.07976 22.2498C6.14098 21.797 6.16139 21.3237 6.36546 20.9018C6.39607 20.8401 6.38586 20.7577 6.4879 20.7475C6.58993 20.7372 6.61034 20.8092 6.65115 20.8606C6.68176 20.9121 6.72257 20.9635 6.75318 21.0047C7.0899 21.478 7.64088 21.6324 8.17145 21.3957C8.3041 21.3443 8.33471 21.3751 8.34491 21.4986C8.35511 21.7147 8.26328 21.8793 8.14084 22.044C7.73271 22.5585 7.34498 23.073 7.03888 23.6595C6.77359 24.174 6.70217 24.7296 6.64095 25.2853C6.58993 25.7895 6.5083 26.2937 6.64095 26.7979C6.75318 27.2198 6.94705 27.5594 7.27356 27.8783C7.7021 28.2899 8.20206 28.5575 8.67142 28.897C9.06935 29.1852 9.5183 29.2572 10.0285 29.1646C9.77338 29.6791 9.71216 30.2244 9.61013 30.7595C9.5387 31.1402 9.43667 31.521 9.43667 31.8914C9.43667 32.694 9.5183 33.4966 9.91623 34.2066C10.1611 34.6594 10.3448 35.1224 10.4672 35.6266C10.5284 35.8633 10.5284 36.0897 10.3652 36.2852C10.0693 36.6453 9.77338 37.0158 9.37545 37.2627C9.16118 37.3965 9.17138 37.3965 9.04894 37.1907C8.78365 36.7482 8.67142 36.244 8.58979 35.7501C8.54898 35.4826 8.70203 35.2356 8.89589 35.0504C9.03874 34.9063 9.17138 34.752 9.20199 34.5462C8.27349 35.3797 7.90616 36.4498 7.91637 37.6846C7.84494 37.664 7.83474 37.592 7.80413 37.5405C7.63067 37.2421 7.48783 36.9334 7.35518 36.6144C7.12051 36.0794 7.28376 35.6163 7.61027 35.1944C7.78372 34.9784 7.86535 34.7417 7.88576 34.4536C7.77352 34.5256 7.7021 34.6079 7.64088 34.7005C7.47762 34.9063 7.31437 35.1121 7.16132 35.3282C6.87563 35.7398 6.93685 36.1823 7.05929 36.6247C7.16132 37.0055 7.37559 37.3347 7.56945 37.6743C7.60006 37.7258 7.65108 37.7772 7.64088 37.8492C7.06949 37.7155 6.794 37.3347 6.68176 36.7791C6.60013 36.3778 6.57973 35.9662 6.53891 35.5649C6.4981 35.1739 6.66135 34.824 6.78379 34.4742C6.8144 34.3918 6.84501 34.3198 6.88583 34.2169C6.64095 34.3095 6.51851 34.4844 6.45729 34.6902C6.36546 34.9989 6.34505 35.3282 6.33485 35.6472C6.33485 35.7295 6.33485 35.8015 6.32464 35.8839C6.31444 35.9044 6.30424 35.9044 6.29403 35.8839C6.28383 35.5031 6.17159 35.143 6.03895 34.7931C5.8757 34.3507 5.8859 33.9391 6.17159 33.5378C6.30424 33.3423 6.37566 33.1159 6.36546 32.8689C6.28383 32.8586 6.25322 32.9204 6.21241 32.9615C5.69204 33.5275 5.51858 34.1655 5.80427 34.9166C5.93692 35.2562 6.03895 35.6163 6.02875 35.9971C6.01854 36.563 5.79407 36.8923 5.25329 37.0878C5.20227 37.0466 5.24309 37.0055 5.26349 36.9643C5.33492 36.7791 5.39614 36.5939 5.46756 36.4087C5.82468 35.5134 5.50837 34.7108 5.07983 33.9494C4.99821 33.795 4.90638 33.651 4.89617 33.4863C4.86556 33.1571 4.94719 32.8586 5.20227 32.622C5.30431 32.5294 5.41654 32.447 5.49817 32.2824C5.2839 32.3133 5.14105 32.3853 5.01861 32.5088C4.74312 32.7866 4.60028 33.1159 4.64109 33.5069C4.65129 33.5481 4.64109 33.5995 4.65129 33.6407C4.6615 33.7333 4.60028 33.795 4.53906 33.8156C4.47783 33.8362 4.45743 33.7436 4.43702 33.6921C4.31458 33.4143 4.3656 33.1159 4.3758 32.8278C4.39621 32.3339 4.57987 31.9017 4.88597 31.521C4.99821 31.3872 5.09004 31.2328 5.14105 31.0168C4.49824 31.4798 4.10031 32.056 3.98807 32.8484C3.7738 32.5602 3.87584 32.2001 4.03909 31.3872C4.14112 30.8727 4.46763 30.5126 4.77373 30.0907C4.3758 30.2039 4.12072 30.4817 3.84523 31.1094C3.80441 30.8212 3.85543 30.5949 3.94726 30.3685C4.02889 30.1524 4.21255 29.9878 4.27377 29.6894C4.01868 29.8952 3.88604 30.1318 3.73299 30.3479C3.57994 30.564 3.64116 30.8624 3.42689 31.0991C3.40648 30.6463 3.37587 30.2347 3.54933 29.8437C3.67177 29.5762 3.7534 29.2881 4.01868 29.0925C4.24316 28.9279 4.30438 28.6604 4.27377 28.3825C4.31458 28.3414 4.29417 28.3517 4.26356 28.3723Z" fill="#C8B86F"/>
<path d="M21.4504 47.1098C21.481 46.2454 21.93 45.7207 22.7565 45.5046C22.4606 45.4531 22.2055 45.4943 21.9606 45.628C21.3994 45.947 21.1851 46.4821 21.1749 47.0892C21.1647 47.4699 21.0117 47.7478 20.7158 47.9536C20.4913 48.1079 20.0424 48.0153 19.9097 47.7786C19.8893 47.7375 19.8995 47.6654 19.8995 47.6037C19.8995 47.0995 19.573 46.7188 19.0935 46.6467C18.9302 46.6262 18.7873 46.5438 18.6037 46.5644C19.073 45.6898 19.9913 45.6075 20.7668 45.2679C20.2566 45.2782 19.7975 45.4325 19.3281 45.5972C18.8282 45.7721 18.5119 46.1631 18.2262 46.585C18.1241 46.4718 18.0833 46.3278 17.9609 46.2454C17.8895 46.2043 17.9303 46.1425 17.9507 46.0808C18.0221 45.8853 18.0935 45.6795 18.1649 45.484C18.2772 45.1444 18.0629 44.6608 17.716 44.5373C17.5119 44.4653 17.2875 44.4036 17.0732 44.3418C16.9916 44.3212 16.9814 44.3109 17.012 44.2286C17.114 43.9714 17.2773 43.7964 17.5527 43.7347C17.9915 43.6215 18.42 43.6215 18.869 43.7553C20.1648 44.1463 21.4402 44.0022 22.7258 43.6524C23.2462 43.5186 23.7054 43.2922 24.1339 42.9836C24.3788 42.8086 24.6033 42.6028 24.6747 42.2838C24.8992 42.5205 24.9196 42.9527 24.7257 43.282C24.5931 43.5186 24.4298 43.7347 24.2359 43.9302C24.1441 44.0228 24.0421 44.1257 24.0115 44.3212C24.3482 44.1257 24.6135 43.9302 24.8175 43.6524C24.9502 43.4672 25.093 43.282 25.2563 43.1173C25.4706 42.9012 25.5726 42.644 25.5522 42.3353C25.5216 41.7899 25.4297 41.2754 25.0522 40.8433C25.042 40.833 25.042 40.8227 25.0318 40.8124C24.5522 40.514 24.3074 40.0098 23.94 39.5982C23.6748 39.2998 23.3687 39.0528 22.9911 38.8779C23.1034 38.7133 23.236 38.5898 23.4197 38.5177C23.5421 38.4766 23.6646 38.4251 23.736 38.3017C23.8074 38.1679 23.8176 38.0341 23.7054 37.9209C23.6033 37.818 23.4809 37.8386 23.3687 37.9209C23.2564 38.0032 23.1442 38.0753 23.0422 38.1782C22.8585 38.3634 22.3789 38.456 22.1647 38.3222C22.0218 38.2296 22.0218 38.0547 22.0116 37.8901C22.0116 37.7769 22.0626 37.674 22.1238 37.5814C22.7054 36.573 23.2564 35.5543 23.6952 34.4738C23.8176 34.1754 23.9503 34.1034 24.2564 34.196C24.7053 34.3195 24.7257 34.3812 24.44 34.7517C24.1237 35.153 23.838 35.5851 23.5523 36.0173C23.5217 36.0585 23.4401 36.1099 23.5115 36.1614C23.5625 36.2025 23.6339 36.2848 23.7156 36.2231C23.889 36.0893 24.0931 36.0688 24.2972 36.0688C24.889 36.0482 25.4808 35.9967 26.0521 36.1717C26.5113 36.3054 26.9092 36.5627 27.3072 36.8199C27.3888 36.8714 27.4704 36.9434 27.5622 36.9743C27.9092 37.0977 28.1132 37.355 28.2867 37.6637C28.5009 38.0547 28.7152 38.4457 28.9397 38.8367C28.9805 38.9191 29.0213 39.0117 29.0927 39.0631C29.2866 39.2277 29.2968 39.4233 29.2458 39.6496C29.1744 39.9686 29.1029 40.2876 28.9193 40.5757C28.7152 40.905 28.7356 41.224 28.9805 41.5327C29.0825 41.6562 29.1846 41.7899 29.2866 41.9134C29.5111 42.1707 29.7764 42.3456 30.1539 42.3559C29.9294 42.5514 29.7049 42.4793 29.4805 42.4691C29.3988 42.4588 29.2764 42.397 29.2458 42.4896C29.2152 42.5925 29.358 42.6131 29.4397 42.644C29.8478 42.8086 30.2151 42.716 30.511 42.3867C30.5518 42.3353 30.5926 42.2941 30.6437 42.2324C30.5926 42.9424 30.5824 42.9321 30.3988 43.2408C30.1947 43.5907 29.8784 43.7244 29.5009 43.7038C29.1336 43.6833 28.8479 43.4569 28.5112 43.282C28.501 43.7038 28.5418 44.0846 28.8173 44.3933C29.0723 44.6814 29.4295 44.8357 29.7866 45.0724C29.5009 45.1341 29.2662 45.1341 29.0315 45.0415C28.7866 44.9489 28.5622 44.8357 28.3683 44.6711C28.2765 44.5888 28.2357 44.6093 28.1642 44.7122C27.8785 45.1753 27.501 45.556 27.0113 45.8956C26.9909 45.4222 26.7664 45.0827 26.4297 44.7946C26.3889 44.8872 26.4297 44.9489 26.4501 45.0107C26.5011 45.1136 26.5521 45.2267 26.6031 45.3296C26.746 45.628 26.7664 45.9162 26.7052 46.2454C26.6439 46.5644 26.4807 46.7496 26.2052 46.8628C26.0521 46.9246 25.8991 46.9863 25.7562 47.0583C25.6542 47.1098 25.6032 47.0892 25.5828 46.9657C25.4195 46.266 25.0114 45.9162 24.287 45.8544C24.0523 45.8338 23.8176 45.8338 23.5625 45.9059C23.7258 46.0911 23.8788 46.266 24.0421 46.4307C24.1849 46.5747 24.2053 46.7188 24.1033 46.8937C24.0421 46.9966 24.0115 47.1201 23.9605 47.2436C23.9094 47.367 23.8074 47.4391 23.6646 47.4391C23.5319 47.4391 23.4707 47.3567 23.4197 47.2436C23.2564 46.8423 22.9401 46.657 22.5218 46.6776C22.1443 46.7085 21.7463 46.7702 21.4504 47.1098Z" fill="#C8B86F"/>
<path d="M23.2133 22.0125C23.2133 20.613 23.2133 19.2033 23.2133 17.8039C23.2133 17.6496 23.2541 17.6084 23.4072 17.6084C24.1316 17.629 24.8663 17.6393 25.5907 17.6496C25.7132 17.6496 25.7132 17.6907 25.7029 17.8039C25.6723 18.3081 25.6621 18.8226 25.6519 19.3268C25.6111 20.6542 25.5703 21.9816 25.5295 23.309C25.5091 24.1425 25.4785 24.976 25.4479 25.8094C25.4377 26.3033 25.4377 26.3136 24.9479 26.3033C24.4275 26.2931 23.9174 26.3445 23.397 26.396C23.2439 26.4062 23.2031 26.3754 23.2031 26.221C23.2133 24.8216 23.2133 23.4119 23.2133 22.0125Z" fill="#C8B86F"/>
<path d="M24.4297 46.9248C24.4399 47.4805 24.4297 48.0464 24.4093 48.6021C24.3787 49.4973 24.3379 50.3822 24.3583 51.2774C24.3583 51.4832 24.4195 51.6684 24.4808 51.8537C24.5318 52.0183 24.5522 52.1624 24.491 52.3373C24.3991 52.6048 24.4195 52.9341 24.3073 53.1708C24.1951 53.4383 24.2971 53.6853 24.1951 53.9219C24.093 54.1483 24.0216 54.3953 23.9502 54.6319C23.889 54.848 23.9706 55.0538 23.9196 55.2802C23.8482 55.5992 23.7461 55.9182 23.7155 56.2474C23.7053 56.34 23.6849 56.4121 23.8277 56.4121C23.94 56.4121 23.9808 56.515 23.9502 56.6179C23.8788 56.8957 23.8175 57.1735 23.6747 57.4205C23.6237 57.5131 23.5421 57.5645 23.44 57.5645C23.3176 57.5645 23.2564 57.4925 23.1951 57.3999C22.9809 56.9986 22.9401 56.5356 22.8278 56.1034C22.5421 54.9715 22.2666 53.8396 21.9809 52.7077C21.9095 52.4093 21.9605 52.1212 21.9503 51.8228C21.9197 50.9893 21.8993 50.1661 21.8789 49.2915C22.1238 49.5179 22.185 49.7751 22.185 50.0529C22.185 50.7424 22.1748 51.4421 22.1544 52.1315C22.134 52.5739 22.2972 52.9753 22.3993 53.3868C22.6238 54.3232 22.8584 55.2596 23.0931 56.196C23.1135 56.2577 23.0931 56.3709 23.1951 56.3503C23.287 56.34 23.2564 56.2269 23.2462 56.1651C23.1951 55.3625 23.1135 54.5702 22.9707 53.7882C22.8482 53.1605 22.634 52.5637 22.7666 51.8845C22.7972 50.9996 22.7768 50.1147 22.787 49.2194C22.787 49.0445 22.8074 48.8593 22.8176 48.6844C22.8278 48.5403 22.8992 48.458 23.0421 48.4271C23.2053 48.386 23.3584 48.3551 23.5216 48.3037C23.8073 48.211 23.9808 47.9847 23.991 47.6965C23.991 47.676 23.991 47.6348 24.0012 47.6245C24.2461 47.4702 24.2563 47.1512 24.4297 46.9248Z" fill="#C8B86F"/>
<path d="M21.9258 15.2109C22.7829 15.2418 23.5889 15.2727 24.395 15.2933C25.1704 15.3138 25.9459 15.3241 26.7112 15.3447C26.8234 15.3447 26.9866 15.2933 27.0377 15.3859C27.0785 15.4579 26.9458 15.5711 26.8846 15.6637C26.5173 16.2091 26.15 16.7647 25.7929 17.3101C25.7418 17.3821 25.701 17.4027 25.6194 17.3924C24.8235 17.3718 24.0379 17.3512 23.242 17.3307C23.1808 17.3307 23.1094 17.3409 23.0686 17.2586C22.7012 16.6001 22.3237 15.9312 21.9258 15.2109Z" fill="#C8B86F"/>
<path d="M21.8555 14.954C22.0799 14.5013 22.2942 14.0691 22.5187 13.6472C22.6003 13.4929 22.6819 13.3282 22.7534 13.1739C22.7942 13.071 22.8656 13.0401 22.9676 13.0401C23.2329 13.0401 23.5084 13.0607 23.7737 13.0298C24.2737 12.9784 24.692 13.1224 25.1001 13.4003C25.5083 13.6781 25.9368 13.9148 26.3449 14.2029C26.6408 14.4087 26.8347 14.6968 27.0286 14.9849C27.1102 15.1084 27.0286 15.1084 26.9367 15.1084C26.2837 15.0878 25.6307 15.0672 24.9777 15.0466C24.1308 15.0261 23.2737 15.0055 22.4269 14.9849C22.2534 14.9746 22.0697 14.9643 21.8555 14.954Z" fill="#C8B86F"/>
<path d="M27.3583 17.7632C27.0624 18.2571 26.889 18.7613 26.8073 19.2861C26.7053 19.8829 26.6849 20.4797 26.6543 21.0868C26.5726 22.5686 26.5012 24.04 26.4196 25.5218C26.4094 25.7482 26.4094 25.9745 26.3992 26.2009C26.3992 26.3141 26.3482 26.3656 26.2155 26.3656C25.685 26.3347 25.685 26.345 25.7054 25.7996C25.7462 24.6883 25.787 23.577 25.8278 22.476C25.8686 21.4058 25.9094 20.3357 25.9502 19.2655C25.9706 18.7922 25.9911 18.3292 26.0115 17.8558C26.0115 17.7426 26.0421 17.6912 26.1747 17.7015C26.5522 17.7118 26.94 17.7324 27.3583 17.7632Z" fill="#C8B86F"/>
<path d="M22.9375 39.1455C23.213 39.2587 23.4477 39.4336 23.6619 39.66C23.8762 39.8967 24.0701 40.1436 24.2639 40.3906C24.5802 40.8125 24.7027 41.2652 24.5394 41.79C24.5088 41.8929 24.5088 41.9958 24.4884 42.0987C24.4476 42.2839 24.3966 42.4486 24.2435 42.5823C23.9068 42.9013 23.4987 43.1174 23.0803 43.3026C22.9987 43.3438 22.9375 43.3438 22.9375 43.2203C22.9375 41.8723 22.9375 40.5141 22.9375 39.1455Z" fill="#C8B86F"/>
<path d="M24.3867 6.969C24.4683 6.75291 24.55 6.52654 24.6316 6.31045C24.8357 6.01204 24.9377 5.67248 25.0908 5.3432C25.1622 5.18885 25.2438 5.0345 25.3458 4.90074C25.3866 4.839 25.4479 4.74639 25.5295 4.78755C25.6009 4.82871 25.5703 4.92132 25.5499 4.99335C25.4581 5.30204 25.4275 5.63132 25.4377 5.9503C25.4479 6.41335 25.5091 6.85581 25.6723 7.28799C25.958 8.02886 26.1315 8.8006 26.3458 9.56205C26.4274 9.83988 26.3662 10.1177 26.2539 10.3749C26.1315 10.6631 26.0091 10.9615 25.7744 11.1878C25.5907 11.3113 25.4071 11.4142 25.1928 11.4554C25.4275 10.4984 25.4887 9.53118 25.2642 8.55364C25.1622 8.11118 24.9887 7.69958 24.6724 7.37031C24.55 7.24683 24.4479 7.12335 24.3867 6.969Z" fill="#C50068"/>
<path d="M27.7159 11.1363C27.4302 11.4142 27.1139 11.6303 26.7568 11.7949C26.8588 11.3524 26.9812 10.9203 27.0833 10.4778C27.3384 9.41794 27.2057 8.39924 26.8078 7.39083C26.7364 7.20562 26.6649 7.0204 26.6445 6.82489C26.6751 6.74257 26.716 6.66025 26.7466 6.57793C26.8384 6.48532 26.8996 6.36185 26.971 6.24866C27.1343 5.98112 27.3282 5.74445 27.573 5.54895C27.6241 5.50779 27.6955 5.44605 27.7669 5.48721C27.8485 5.53866 27.7975 5.62098 27.7771 5.68271C27.5322 6.38243 27.5934 7.08214 27.7873 7.78185C27.9097 8.22431 28.0016 8.66678 28.1342 9.09895C28.3179 9.71635 28.2158 10.272 27.8689 10.7968C27.8077 10.91 27.7567 11.0232 27.7159 11.1363Z" fill="#C50068"/>
<path d="M8.87925 23.3394C9.07311 23.8127 9.48125 23.9053 9.89959 23.9568C10.2771 23.9979 10.6342 23.9259 10.9097 23.6172C10.9505 23.5761 11.0016 23.5452 11.0424 23.4937C11.3791 23.1233 11.7872 22.9793 12.2872 23.0821C12.5933 23.1439 12.9096 23.1748 13.2259 23.2056C13.3381 23.2159 13.3993 23.2674 13.4402 23.3703C13.7054 24.0803 13.4912 24.1832 12.9606 24.2964C12.5321 24.389 12.2566 24.1935 12.1953 23.7304C12.1851 23.6275 12.1749 23.5555 12.0525 23.5349C11.9301 23.5143 11.9199 23.6069 11.879 23.679C11.8076 23.8333 11.726 23.9877 11.675 24.1523C11.624 24.3169 11.5219 24.3787 11.3587 24.3993C10.7975 24.4713 10.2465 24.5639 9.68532 24.6256C9.07311 24.6977 8.57315 24.1729 8.716 23.6172C8.7364 23.5143 8.78742 23.4114 8.87925 23.3394Z" fill="#C50068"/>
<path d="M24.6015 51.37C24.5607 50.7217 24.6117 50.1043 24.6219 49.4869C24.6423 48.4477 24.724 47.4187 24.6934 46.3794C24.6934 46.2559 24.7342 46.2559 24.8362 46.2971C25.0913 46.3897 25.2545 46.5337 25.3158 46.8116C25.4484 47.3775 25.4892 47.9332 25.428 48.5094C25.3566 49.2297 25.326 49.9397 25.2954 50.66C25.2852 50.8967 25.2443 51.0716 24.9893 51.1539C24.8668 51.1951 24.7546 51.2774 24.6015 51.37Z" fill="#C8B86F"/>
<path d="M21.9169 43.5803C21.121 43.7347 20.3251 43.817 19.5191 43.6627C19.1824 43.6009 18.8559 43.4672 18.5089 43.4054C18.4375 43.3951 18.4171 43.354 18.3865 43.2922C18.2845 43.0659 18.2539 42.8395 18.3559 42.6028C18.4069 42.4896 18.4477 42.3764 18.4987 42.253C18.611 41.9957 18.6518 41.9648 18.9069 42.078C19.6007 42.397 20.3251 42.6543 20.9577 43.107C21.2638 43.3128 21.5699 43.4877 21.9169 43.5803Z" fill="#C8B86F"/>
<path d="M29.2545 15.4274C29.1218 15.7053 28.9892 15.9522 28.7953 16.1683C28.3974 16.6005 27.9382 16.9812 27.5709 17.4545C27.5403 17.4957 27.5199 17.5163 27.4587 17.506C27.0811 17.4751 26.7036 17.4545 26.3261 17.434C26.2139 17.4237 26.1832 17.3928 26.2649 17.2899C26.724 16.6828 27.173 16.086 27.6321 15.4789C27.6729 15.4171 27.7239 15.376 27.8056 15.376C28.2749 15.3863 28.7545 15.3863 29.2545 15.4274Z" fill="#C8B86F"/>
<path d="M17.7445 10.5399C17.9485 10.7663 18.1628 10.9927 18.3567 11.1985C17.673 11.3014 16.5711 10.6943 16.2344 9.99456C16.3262 9.96369 16.2854 9.89166 16.2854 9.82992C16.2344 8.58485 16.6119 7.46325 17.2241 6.41368C17.2343 6.40339 17.2445 6.40339 17.2751 6.38281C17.3159 6.75325 17.3567 7.1031 17.3261 7.47354C17.2955 7.92629 17.1527 8.34818 16.9894 8.77006C16.6833 9.52122 17.02 10.118 17.6016 10.5605C17.6526 10.5811 17.7037 10.5708 17.7445 10.5399Z" fill="#C50068"/>
<path d="M26.5586 13.2041C27.0688 13.235 27.5483 13.2556 28.0381 13.2864C28.1095 13.2864 28.1503 13.3276 28.1809 13.379C28.5176 13.9347 28.8544 14.5006 29.1911 15.0563C29.1298 15.1283 29.0584 15.0974 29.0074 15.0974C28.6503 15.0974 28.283 15.0974 27.9258 15.0974C27.8646 15.0974 27.7932 15.1077 27.7626 15.0254C27.5993 14.4492 27.1912 14.0376 26.8443 13.5848C26.7525 13.4613 26.6606 13.3379 26.5586 13.2041Z" fill="#C8B86F"/>
<path d="M21.7851 37.9932C21.8157 38.2607 21.9075 38.5077 22.1116 38.6929C22.1728 38.7443 22.183 38.8164 22.183 38.8884C22.183 39.3823 22.1932 39.8659 22.2034 40.3598C22.2136 41.2962 22.234 42.2223 22.2442 43.1587C22.2442 43.2307 22.3157 43.3748 22.1422 43.3542C22.03 43.3439 21.9075 43.3439 21.8973 43.1484C21.8667 41.7901 21.8259 40.4216 21.7851 39.0633C21.7749 38.7032 21.7443 38.3533 21.7647 37.9932C21.7749 37.9932 21.7749 37.9932 21.7851 37.9932Z" fill="#C8B86F"/>
<path d="M21.4258 17.7422C21.5992 17.7113 21.6911 17.7113 21.6911 17.9274C21.7013 18.802 21.7421 19.6869 21.7625 20.5616C21.8033 21.961 21.8339 23.3604 21.8849 24.7598C21.8951 25.12 21.9053 25.4698 21.9155 25.83C21.9155 25.8814 21.9666 25.9843 21.8543 25.9843C21.7523 25.9843 21.7115 25.9329 21.7115 25.8197C21.7013 25.2332 21.6809 24.6467 21.6707 24.0601C21.6298 22.7225 21.589 21.3951 21.5482 20.0574C21.5278 19.368 21.4972 18.6682 21.4768 17.9788C21.4768 17.8965 21.487 17.8142 21.4258 17.7422Z" fill="#C8B86F"/>
<path d="M13.7039 20.0574C13.8774 20.5102 14.0712 20.6645 14.3569 20.5822C14.6222 20.4999 14.6834 20.325 14.5814 19.8311C14.9589 19.6561 15.2548 19.9237 15.5813 20.0472C15.7038 20.0986 15.6732 20.253 15.6324 20.3661C15.4895 20.7366 15.2038 20.9424 14.8263 21.0144C14.3569 21.107 13.908 21.0659 13.5305 20.716C13.4182 20.6028 13.3264 20.4588 13.306 20.325C13.2856 20.1603 13.5101 20.1912 13.6121 20.1089C13.6427 20.078 13.6733 20.0677 13.7039 20.0574Z" fill="white"/>
<path d="M20.4312 13.2256C20.1557 13.8121 19.8905 14.3472 19.6354 14.8925C19.6048 14.9543 19.5639 14.9852 19.5027 14.9852C19.1864 14.9852 18.8599 14.9852 18.5436 14.9852C18.5232 14.9543 18.5436 14.9234 18.564 14.8925C18.8905 14.4089 19.217 13.9356 19.5333 13.452C19.5844 13.3696 19.6558 13.3285 19.7578 13.3182C19.9721 13.2976 20.1864 13.2667 20.4312 13.2256Z" fill="#C8B86F"/>
<path d="M21.7874 37.9927C21.7772 37.9927 21.7772 37.9927 21.7669 37.9927C21.7159 37.5399 21.7261 37.0975 21.7159 36.6447C21.6955 35.7701 21.6649 34.8852 21.6343 34.0105C21.6241 33.8665 21.6649 33.8356 21.7976 33.8973C21.9404 33.9591 22.0322 34.0311 22.0424 34.206C22.0628 35.1013 22.0833 36.0068 22.1241 36.902C22.1343 37.0872 22.0935 37.2415 21.9812 37.3856C21.8384 37.5605 21.7772 37.7663 21.7874 37.9927Z" fill="#C8B86F"/>
<path d="M7.32756 44.2696C7.21532 43.9506 7.01125 43.6933 6.80718 43.4567C6.63373 43.2612 6.36844 43.2303 6.11335 43.2303C6.00112 43.2303 5.88888 43.2509 5.89908 43.0657C5.89908 42.8907 5.98071 42.8496 6.13376 42.8599C6.32763 42.8599 6.50108 42.9319 6.68474 42.9936C6.91942 43.0657 7.14389 43.148 7.37857 43.2097C7.60305 43.2715 7.84793 43.2818 8.0826 43.2715C8.00098 43.7345 7.66427 43.9918 7.32756 44.2696Z" fill="#C8B86F"/>
<path d="M18.7548 15.293C19.0507 15.293 19.3364 15.293 19.6323 15.293C19.7037 15.293 19.7343 15.3238 19.7751 15.3856C20.122 16.0133 20.4791 16.6409 20.8261 17.2686C20.8261 17.2789 20.8261 17.2892 20.8159 17.3509C20.1118 16.6718 19.418 16.0236 18.7344 15.365C18.7446 15.3341 18.7548 15.3135 18.7548 15.293Z" fill="#C8B86F"/>
<path d="M23.0914 35.2865C23.0301 34.8955 23.071 34.5045 23.0301 34.1135C23.0097 33.9283 23.1016 33.8665 23.2852 33.9077C23.6321 33.9797 23.6321 33.9797 23.4995 34.309C23.3669 34.6383 23.2342 34.9676 23.0914 35.2865Z" fill="#C8B86F"/>
<path d="M24.3981 46.4509C24.3165 46.3377 24.2246 46.2245 24.1328 46.1113C24.245 46.0804 24.3369 46.1319 24.4287 46.1422C24.4491 46.2451 24.5103 46.3583 24.3981 46.4509Z" fill="#C2B370"/>
<path d="M24.3945 46.4513C24.466 46.3587 24.4149 46.2455 24.4251 46.1426C24.4762 46.2661 24.4762 46.2969 24.4558 46.5336C24.4149 46.5233 24.4047 46.4821 24.3945 46.4513Z" fill="#837E73"/>
<path d="M17.6511 8.12158C17.6307 8.101 17.6103 8.07013 17.5898 8.04955C17.6 7.97752 17.6205 7.91578 17.6307 7.84375C17.6409 7.84375 17.6511 7.84375 17.6613 7.84375C17.6511 7.93636 17.6511 8.02897 17.6511 8.12158Z" fill="#868173"/>
<path d="M6.3595 35.8838C6.3697 35.8838 6.37991 35.8838 6.39011 35.8838C6.39011 35.9558 6.39011 36.0278 6.39011 36.1307C6.33909 36.0278 6.3595 35.9558 6.3595 35.8838Z" fill="#938C74"/>
<path d="M43.3832 19.8215C43.3832 19.8731 43.373 19.9144 43.373 19.966C43.332 19.9144 43.3218 19.8628 43.3423 19.8112C43.3525 19.7699 43.373 19.7906 43.3832 19.8215Z" fill="#9B9374"/>
<path d="M4.26562 28.3717C4.26562 28.3306 4.27583 28.2791 4.31664 28.2894C4.36766 28.2894 4.33705 28.3409 4.33705 28.382C4.31664 28.382 4.29624 28.382 4.26562 28.3717Z" fill="#4A5268"/>
<path d="M22.4709 31.3359C23.1035 31.5726 23.3076 32.2826 22.9097 32.8177C23.1546 32.8794 23.3892 32.9309 23.6239 32.8897C23.9096 32.8383 24.0014 32.5913 24.1137 32.3649C24.2259 32.118 24.0525 31.9019 24.0218 31.6549C24.3994 31.8504 24.43 32.3958 24.1035 32.9412C24.379 32.9617 24.634 32.9103 24.8687 32.8074C24.981 32.7559 24.9912 32.653 24.9708 32.5399C24.9401 32.3855 24.8585 32.2312 24.8687 32.0562C25.1544 32.2517 25.2667 32.653 25.1442 33.0132C25.3891 33.0543 25.6238 33.0543 25.8482 32.9309C25.8993 32.9103 25.9605 32.8794 25.9911 32.9206C26.0319 32.972 25.9707 33.0132 25.9401 33.0543C25.8074 33.219 25.6544 33.3322 25.4197 33.3013C24.5218 33.1778 23.6137 33.2396 22.726 33.0749C22.6036 33.0543 22.4811 33.0646 22.3587 33.1058C21.8179 33.3116 21.2465 33.2601 20.6445 33.2601C20.7976 33.1058 20.9302 32.972 21.0527 32.8486C21.2159 32.6942 21.3588 32.5193 21.471 32.3238C21.6241 32.0356 21.5628 31.8196 21.2873 31.6549C21.2159 31.6138 21.1343 31.5829 21.0935 31.4903C21.4302 31.3668 21.7669 31.6138 21.7975 31.9945C21.8179 32.2517 21.7261 32.4678 21.573 32.6736C21.4914 32.7868 21.3996 32.8897 21.2975 33.0132C21.8179 33.0132 22.2873 32.9103 22.675 32.6016C22.8791 32.437 22.8995 32.0665 22.7362 31.799C22.6546 31.6652 22.5628 31.5314 22.4811 31.3977C22.4607 31.3874 22.4709 31.3668 22.4709 31.3359Z" fill="#022553"/>
<path d="M23.765 11.2699C23.6936 11.4448 23.6119 11.6197 23.5507 11.7947C23.5303 11.8564 23.5099 11.8976 23.4283 11.8564C22.6426 11.3934 21.9386 10.848 21.6223 9.94248C21.4692 9.54117 21.5509 9.12958 21.5713 8.72827C21.5713 8.66653 21.5815 8.5945 21.5917 8.53277C21.7549 8.24465 21.7651 7.92566 21.8162 7.61697C21.8468 7.39059 21.8672 7.1745 21.908 6.94812C21.9182 6.86581 21.9386 6.7732 21.959 6.69088C21.9896 6.58798 21.9794 6.43363 22.0814 6.42334C22.1937 6.41305 22.2141 6.5674 22.2549 6.64972C22.2957 6.74233 22.3467 6.84523 22.3875 6.93784C22.5916 7.39059 22.8569 7.81247 23.1528 8.20349C23.714 8.94436 23.9078 9.78813 23.7854 10.7142C23.765 10.8994 23.7344 11.0847 23.765 11.2699Z" fill="#C50068"/>
<path d="M29.6417 11.4044C29.5192 11.4867 29.3968 11.5484 29.2539 11.5999C29.1621 11.6307 29.1111 11.6307 29.1417 11.497C29.2642 11.0751 29.3662 10.6429 29.4376 10.2107C29.509 9.80943 29.458 9.40813 29.407 9.01711C29.356 8.6261 29.3152 8.24537 29.3152 7.85435C29.407 7.56624 29.458 7.26783 29.6111 7.0003C29.7437 6.77392 29.8968 6.55783 30.0906 6.37261C30.1314 6.33145 30.1825 6.28 30.2437 6.30058C30.3049 6.32116 30.3049 6.39319 30.3049 6.45493C30.3151 6.62986 30.3151 6.7945 30.3049 6.96943C30.2947 7.20609 30.3253 7.43247 30.4273 7.64856C30.9273 8.77015 30.7334 9.79914 30.0498 10.7664C29.907 10.9619 29.7437 11.1677 29.6417 11.4044Z" fill="#C50068"/>
<path d="M25.7753 11.1874C25.8977 10.9611 26.0202 10.7347 26.1426 10.5083C26.3365 10.1276 26.3671 9.73657 26.2344 9.32497C26.01 8.59439 25.8059 7.85352 25.561 7.13323C25.3161 6.41294 25.2855 5.66178 25.51 4.91062C25.5202 4.89004 25.5202 4.85917 25.5304 4.83859C25.5304 4.8283 25.5202 4.81801 25.51 4.78714C25.3672 4.90033 25.2855 5.04439 25.2141 5.19873C25.0611 5.52801 24.9182 5.85729 24.7754 6.19685C24.7448 6.25859 24.7346 6.3512 24.6325 6.31004C24.5713 6.28946 24.5509 6.25859 24.5611 6.18656C24.6937 5.5383 24.8468 4.89004 25.3059 4.37554C25.6427 3.99482 26.1018 3.75815 26.561 3.52148C26.5303 3.59351 26.4997 3.67583 26.4691 3.74786C26.3467 4.02569 26.2242 4.30352 26.0916 4.57105C25.7141 5.36337 25.7345 6.17627 25.9896 6.99946C26.2242 7.7712 26.4283 8.56352 26.5814 9.35584C26.663 9.79831 26.6426 10.2305 26.4283 10.6421C26.2855 10.9302 26.0712 11.1154 25.7753 11.1874Z" fill="#022553"/>
<path d="M18.926 8.91406C18.8036 8.86261 18.8444 8.75971 18.8546 8.67739C18.8852 8.27609 18.9668 7.87478 19.0791 7.49406C19.2117 7.0413 19.2423 6.56797 19.2729 6.10492C19.2933 5.73449 19.3137 5.37434 19.3545 5.00391C19.6402 5.42579 19.9157 5.85797 20.0994 6.34159C20.3341 6.9384 20.3137 7.5558 20.2728 8.18348C20.2422 8.70826 20.1912 9.22276 20.1708 9.74754C20.1504 10.2209 20.3035 10.6428 20.4565 11.0749C20.4463 11.1573 20.3851 11.1161 20.3545 11.1058C20.232 11.0441 20.1402 10.9515 20.0688 10.8383C19.8443 10.509 19.7525 10.1386 19.7729 9.74754C19.8035 8.95522 19.8137 8.1629 19.8035 7.37058C19.8035 7.06188 19.7321 6.77376 19.6402 6.48565C19.63 6.46507 19.5994 6.49594 19.6198 6.48565C19.63 6.47536 19.63 6.48565 19.6402 6.49594C19.6811 6.55768 19.6708 6.61942 19.6606 6.69145C19.5586 7.40145 19.3749 8.09087 19.1403 8.75971C19.1097 8.82145 19.0995 8.9758 18.926 8.91406Z" fill="#022553"/>
<path d="M23.7641 11.2706C23.6417 11.2192 23.7029 11.1163 23.7131 11.034C23.7845 10.5298 23.8049 10.0256 23.7131 9.52135C23.6111 8.99656 23.356 8.54381 23.0397 8.13221C22.6928 7.66917 22.4275 7.16497 22.203 6.64018C22.1724 6.57844 22.1418 6.50641 22.101 6.42409C21.9683 6.8254 21.9275 7.21641 21.8867 7.60743C21.8561 7.88526 21.8051 8.16308 21.7337 8.44091C21.7132 8.52323 21.6928 8.56439 21.6112 8.54381C21.5296 8.52323 21.5296 8.46149 21.5398 8.41004C21.601 7.67946 21.601 6.93859 21.7337 6.2183C21.7949 5.87873 21.9479 5.55974 22.1214 5.23047C22.305 5.71409 22.4887 6.18743 22.6622 6.65047C22.754 6.89743 22.8662 7.12381 23.0193 7.3296C23.3458 7.78236 23.6213 8.27627 23.8458 8.79077C24.1621 9.52135 24.1927 10.2725 23.9682 11.034C23.9274 11.1163 23.9376 11.2809 23.7641 11.2706Z" fill="#022553"/>
<path d="M27.7147 11.1365C27.6229 11.0439 27.7045 10.9821 27.7453 10.9204C28.0106 10.5088 28.2453 10.0869 28.1636 9.57243C28.1228 9.26373 28.0208 8.95503 27.9494 8.64634C27.8065 8.03923 27.5922 7.44242 27.5616 6.81474C27.5412 6.4443 27.6024 6.09445 27.7045 5.74459C27.7249 5.67256 27.7555 5.60053 27.7861 5.49764C27.6637 5.5285 27.6024 5.59024 27.531 5.65198C27.2657 5.88865 27.0617 6.16648 26.8984 6.47517C26.8678 6.53691 26.8372 6.60894 26.7454 6.57807C26.6739 6.5472 26.6841 6.49575 26.7148 6.43401C26.827 6.15619 26.929 5.87836 27.0923 5.6314C27.4086 5.11691 27.9188 4.93169 28.4799 4.77734C28.3779 5.07575 28.2963 5.35358 28.2044 5.62111C27.9698 6.28996 28.0004 6.9588 28.184 7.62764C28.3473 8.24503 28.4391 8.883 28.4799 9.52098C28.5105 10.1178 28.2657 10.6426 27.8677 11.085C27.8269 11.1262 27.7861 11.1776 27.7147 11.1365Z" fill="#022553"/>
<path d="M29.6399 11.4042C29.5685 11.3322 29.6297 11.2704 29.6706 11.219C29.895 10.9 30.1297 10.5707 30.3134 10.2209C30.7113 9.50057 30.8031 8.73912 30.497 7.96738C30.3134 7.50434 30.2419 7.031 30.2521 6.53709C30.2521 6.46506 30.2521 6.39303 30.2521 6.29013C30.1093 6.38274 30.0277 6.49593 29.9358 6.59883C29.6706 6.9281 29.4665 7.28825 29.4257 7.72042C29.4155 7.79245 29.3951 7.83361 29.3236 7.83361C29.1808 7.79245 29.242 7.67926 29.2522 7.60723C29.3032 6.75318 29.6297 6.05346 30.395 5.611C30.4868 5.55955 30.5684 5.49781 30.6807 5.42578C30.6807 5.73448 30.6909 6.0123 30.6807 6.30042C30.6603 6.77376 30.6909 7.22651 30.8439 7.67926C31.2011 8.7597 31.0174 9.7784 30.446 10.7354C30.2828 11.0029 30.0073 11.1778 29.7828 11.3836C29.742 11.4351 29.691 11.4351 29.6399 11.4042Z" fill="#022553"/>
<path d="M18.9258 8.9136C19.038 8.92389 19.0482 8.83128 19.0686 8.76954C19.3339 7.9978 19.5482 7.20548 19.6298 6.39258C19.7625 6.56751 19.8441 6.90707 19.8543 7.30838C19.8747 8.03896 19.8747 8.76954 19.8135 9.50012C19.7931 9.81911 19.8339 10.1278 19.9359 10.4365C20.0175 10.6937 20.1604 10.8995 20.3747 11.0539C20.3951 11.0745 20.4257 11.1053 20.4461 11.0539C20.5685 11.1671 20.691 11.2906 20.793 11.4243C20.7726 11.4346 20.7624 11.4552 20.7624 11.4552C19.7523 11.1979 18.987 10.6011 18.9462 9.46925C18.9462 9.28403 18.936 9.09882 18.9258 8.9136Z" fill="#C50068"/>
<path d="M14.2655 10.7866C14.1839 10.8072 14.1737 10.7455 14.1533 10.6837C13.7043 9.49009 13.8063 8.33762 14.4594 7.24689C14.6022 7.01023 14.7655 6.78385 14.9287 6.59863C14.9287 6.95878 14.9389 7.3395 14.9287 7.72023C14.8981 8.32733 14.8471 8.93443 14.9491 9.54154C15.0818 10.2515 15.3981 10.8586 15.8572 11.404C15.9184 11.476 16.0511 11.5378 15.9899 11.6818C15.8776 11.795 15.7756 11.7127 15.694 11.651C15.5409 11.5378 15.4083 11.3937 15.296 11.2394C14.8369 10.6426 14.6022 9.96342 14.541 9.21226C14.5206 8.90356 14.5002 8.60516 14.5104 8.30675C14.5104 8.21414 14.5104 8.12153 14.5512 8.03922C14.2451 8.61545 14.2247 9.23284 14.3165 9.86052C14.3471 10.0869 14.3777 10.3236 14.3981 10.5499C14.3981 10.6426 14.4288 10.7763 14.2655 10.7866Z" fill="#022553"/>
<path d="M14.2654 10.7871C14.3675 10.7254 14.3471 10.6328 14.3369 10.5401C14.2961 10.1491 14.245 9.76841 14.2042 9.37739C14.1532 8.90406 14.3267 8.20435 14.5818 7.85449C14.5409 8.33812 14.5409 8.79087 14.5818 9.25392C14.6634 10.1491 14.9899 10.9312 15.6429 11.5486C15.7347 11.6309 15.8164 11.7338 15.9694 11.672C16.1123 11.9602 16 12.1351 15.6837 12.1248C15.5715 12.1248 15.4592 12.0939 15.3674 12.0322C14.8674 11.7441 14.4797 11.3428 14.2654 10.7871Z" fill="#C50068"/>
<path d="M27.8073 42.2321C27.7052 42.0674 27.7257 41.9234 27.7563 41.8102C27.9093 41.3266 27.9093 40.8224 27.8991 40.3182C27.8787 39.6699 27.8685 39.0216 27.7154 38.3734C27.4706 37.3341 26.7563 36.8814 25.838 36.6241C25.5217 36.5315 25.185 36.6035 24.8687 36.6858C24.7667 36.7064 24.6646 36.7476 24.634 36.6035C24.6034 36.4595 24.7157 36.4492 24.8177 36.4286C25.8686 36.1302 26.7155 36.5418 27.4706 37.2312C27.7461 37.4885 27.8175 37.8692 27.9399 38.219C28.2052 38.9599 28.1542 39.7214 28.1236 40.4931C28.1032 40.9561 28.093 41.4192 27.9501 41.8617C27.8991 41.9645 27.8583 42.0777 27.8073 42.2321Z" fill="#022653"/>
<path d="M27.0217 39.1353C26.9197 38.8883 26.8177 38.6722 26.7258 38.4458C26.43 37.6947 25.828 37.4066 25.0831 37.314C24.9403 37.2934 24.7974 37.2831 24.6546 37.2728C24.5627 37.2728 24.5219 37.2316 24.5117 37.139C24.5117 37.0464 24.5729 37.0053 24.6546 37.0053C25.5014 36.995 26.2667 37.1905 26.8075 37.9211C27.0319 38.2195 27.1136 38.7443 27.0217 39.1353Z" fill="#032653"/>
</svg>
